<?xml version="1.0" encoding="UTF-8" standalone="no"?>
<!-- Created with Inkscape (http://www.inkscape.org/) -->

<svg
   width="499.56708mm"
   height="133.75833mm"
   viewBox="0 0 499.56708 133.75833"
   version="1.1"
   id="svg5"
   xml:space="preserve"
   xmlns:inkscape="http://www.inkscape.org/namespaces/inkscape"
   xmlns:sodipodi="http://sodipodi.sourceforge.net/DTD/sodipodi-0.dtd"
   xmlns="http://www.w3.org/2000/svg"
   xmlns:svg="http://www.w3.org/2000/svg"><sodipodi:namedview
     id="namedview7"
     pagecolor="#ffffff"
     bordercolor="#000000"
     borderopacity="0.25"
     inkscape:showpageshadow="2"
     inkscape:pageopacity="0.0"
     inkscape:pagecheckerboard="0"
     inkscape:deskcolor="#d1d1d1"
     inkscape:document-units="mm"
     showgrid="false"
     showguides="true" /><defs
     id="defs2"><marker
       markerWidth="0.52499998"
       markerHeight="0.99999994"
       refX="0"
       refY="0"
       orient="auto-start-reverse"
       id="CapTriangle"
       viewBox="0 0 0.525 1"
       inkscape:stockid="pin"
       style="overflow:visible"
       preserveAspectRatio="xMidYMid"
       inkscape:isstock="true"
       inkscape:collect="always"><path
         id="path7813"
         style="fill:context-stroke;stroke-linecap:butt"
         d="M 0,-1 1,0 0,1 -0.05,0 Z"
         sodipodi:nodetypes="sssssscsss"
         transform="scale(0.5)" /></marker></defs><g
     inkscape:label="Capa 1"
     inkscape:groupmode="layer"
     id="layer1"
     transform="translate(281.70316,182.39773)"><rect
       style="fill:none;fill-opacity:1;stroke:none;stroke-width:0.0649999;stroke-dasharray:none;stroke-opacity:0.626761"
       id="rect37614"
       width="499.56711"
       height="133.75833"
       x="-281.70316"
       y="-182.39774"
       rx="0.27250391"
       ry="0.40776861"
       inkscape:export-filename="fondo.svg"
       inkscape:export-xdpi="96"
       inkscape:export-ydpi="96" /><g
       id="g30188"
       transform="translate(-102.21884,-231.07163)"
       inkscape:export-filename="fondo.svg"
       inkscape:export-xdpi="96"
       inkscape:export-ydpi="96"><path
         style="fill:#f5b21b;fill-opacity:1;stroke:none;stroke-width:0.264583;stroke-opacity:1"
         d="m -127.04508,116.02522 c -1.15319,-1.37221 -1.42966,-2.74441 -1.58331,-4.11662 l -0.0633,-17.416446 c 2.90395,-12.484639 18.11047,-11.518565 20.45641,-2.659968 l -2.27997,23.939704 z"
         id="path6466"
         sodipodi:nodetypes="cccccc" /><rect
         style="fill:#273238;fill-opacity:1;stroke-width:0.21775"
         id="rect3764-7"
         width="36.823292"
         height="2.0600121"
         x="107.31339"
         y="133.10927"
         ry="0.5"
         rx="0.49914151"
         transform="rotate(90)" /><rect
         style="fill:#273238;fill-opacity:1;stroke-width:0.217869"
         id="rect3764-7-4"
         width="36.863575"
         height="2.0600121"
         x="107.24371"
         y="85.809616"
         ry="0.5"
         rx="0.49968755"
         transform="rotate(90)" /><path
         style="fill:#9630b4;fill-opacity:0.679577;stroke-width:0.264583"
         d="m -114.36989,80.54331 0.33587,2.351101"
         id="path4020" /><path
         style="fill:#ff735c;fill-opacity:1;stroke-width:0.264583"
         d="m -124.51321,105.68889 c -1.6421,-1.09629 -1.92073,-9.928752 3.62741,-14.957476 5.18583,-4.700337 12.07197,-3.970791 18.13706,-0.179131 2.910273,1.819391 3.685011,4.126286 4.881334,6.493515 l -8.643094,9.314842 -17.46532,0.26869 z"
         id="path4750"
         sodipodi:nodetypes="csscccc" /><path
         style="fill:#f89b68;fill-opacity:1;stroke-width:0.264583"
         d="m -113.96844,88.262264 c 0.40077,-1.589224 0.49278,-3.101257 0.67175,-4.635029 l 5.77699,0.313481 c -0.0832,1.41526 -0.29956,2.786155 -0.22392,4.254373 -2.43392,3.905899 -4.44647,3.253322 -6.22482,0.06717 z"
         id="path3964"
         sodipodi:nodetypes="ccccc" /><rect
         style="fill:#273238;fill-opacity:1;stroke-width:0.145296"
         id="rect6442"
         width="20.1035"
         height="1.6800169"
         x="138.16983"
         y="97.279121"
         ry="0.4077687"
         rx="0.27250391"
         transform="rotate(99.63193)" /><rect
         style="fill:#c48e14;fill-opacity:1;stroke:none;stroke-width:0.264583;stroke-opacity:1"
         id="rect6440"
         width="37.796745"
         height="5.642642"
         x="-128.90193"
         y="115.77326"
         rx="2.8210001"
         ry="2.8210001" /><rect
         style="fill:#273238;fill-opacity:1;stroke-width:0.145296"
         id="rect6442-8"
         width="20.1035"
         height="1.6800169"
         x="100.40617"
         y="-124.42249"
         ry="0.4077687"
         rx="0.27250391"
         transform="matrix(0.1673182,0.98590295,0.98590295,-0.1673182,0,0)" /><path
         style="fill:#1f282f;fill-opacity:1;stroke-width:0.264583"
         d="m -105.39093,116.88461 6.583084,0.17913 c 0.518091,5.57893 1.698299,11.44162 3.045235,17.37576 l 5.105247,-0.22392 c 0.208473,-2.07115 2.12208,-16.07166 0.03689,-21.90693 -1.239397,-3.46837 -8.84598,-4.18317 -10.695216,-4.51496 l -8.91179,-0.5374 z"
         id="path5480"
         sodipodi:nodetypes="ccccsccc" /><path
         style="fill:#fffefe;fill-opacity:1;stroke-width:0.37847"
         d="m -110.95215,134.18399 0.008,5.89815 4.65742,-0.45816 -0.4179,-2.57374 0.23876,-2.92422 z"
         id="path5482"
         sodipodi:nodetypes="cccccc" /><path
         style="fill:#fffefe;fill-opacity:1;stroke-width:0.264583"
         d="m -95.269999,133.31992 -0.08957,2.82133 1.746533,2.01522 2.194359,-2.37349 -0.08956,-2.77654 z"
         id="path5484" /><path
         style="fill:#352b52;fill-opacity:1;stroke-width:0.264583"
         d="m -110.98879,137.23843 -0.82848,4.56785 c 2.50784,0.98664 4.97046,2.25963 7.47874,2.37349 1.26886,0.0576 2.08931,-0.4665 2.28392,-1.25392 l -4.67981,-5.95612 c -1.01967,-0.47893 -1.69108,1.1543 -2.06001,1.25392 -1.05317,0.28438 -1.49375,-0.29505 -2.19436,-0.98522 z"
         id="path5486"
         sodipodi:nodetypes="ccsccsc" /><path
         style="fill:#352b52;fill-opacity:1;stroke-width:0.264583"
         d="m -95.24761,136.14125 c -0.255878,1.6183 -0.156932,3.64212 0,5.7322 3.932535,-0.4026 7.915766,-0.83054 11.621156,-1.11957 0.884374,-4.24849 -4.75615,-2.44387 -7.881784,-6.22482 0,0 -0.761004,0.36929 -1.343488,1.74654 -0.484275,1.14503 -2.395884,-0.13435 -2.395884,-0.13435 z"
         id="path5488"
         sodipodi:nodetypes="ccccsc" /><path
         style="fill:none;fill-opacity:0.679577;stroke:#1f282f;stroke-width:0.065;stroke-dasharray:none;stroke-opacity:0.626761;marker-end:url(#CapTriangle)"
         d="m -116.72188,93.352167 c -0.17801,2.168371 -0.10573,4.386802 -1.07665,6.396592 4.98293,0.637291 9.65509,1.613581 13.7115,3.261621"
         id="path5490"
         sodipodi:nodetypes="ccc" /><path
         style="fill:#32244f;fill-opacity:1;stroke:none;stroke-width:0.264583;stroke-opacity:1"
         d="m -107.70786,96.462602 -1.58331,8.549898 c -0.14541,0.68143 0.20764,0.80689 0.60166,0.88665 l 12.761506,-0.15833 c 0.57624,-0.0841 0.818946,-0.41276 0.949989,-0.82332 l 1.773311,-8.296566 c 0.06,-0.53771 -0.124366,-0.858206 -0.60166,-0.918321 h -13.078166 c -0.33821,-0.0017 -0.65199,0.09424 -0.82333,0.759989 z"
         id="path6384"
         sodipodi:nodetypes="ccccccccc" /><rect
         style="fill:#32244f;fill-opacity:1;stroke:none;stroke-width:0.246172;stroke-opacity:1"
         id="rect6438"
         width="11.083195"
         height="0.91832191"
         x="-116.84358"
         y="104.94916"
         rx="0.5"
         ry="0.43283582" /><path
         style="fill:#ffbe9a;fill-opacity:1;stroke-width:0.264583"
         d="m -113.88775,83.589797 c -0.96074,0.359748 -2.20783,-1.716691 -0.52249,-2.390804 l 3.78412,-3.609954 4.62328,1.662477 c -0.0646,2.333252 1.25872,5.182375 -1.26897,6.724685 -3.40385,2.076917 -5.74733,-0.694605 -6.61594,-2.386404 z"
         id="path4748"
         sodipodi:nodetypes="ccccsc" /><path
         style="fill:#273238;fill-opacity:1;stroke-width:0.264583"
         d="m -114.31524,81.088161 c 1.33005,0.245082 2.17447,-0.869623 2.9133,-2.279972 0.80854,1.471283 3.89763,-0.335323 5.4466,1.393317 1.07251,-1.750383 0.59569,-5.039862 -3.1033,-5.003271 -1.63939,3.570094 -5.90555,-1.115927 -5.2566,5.889926 z"
         id="path3866"
         sodipodi:nodetypes="ccccc" /><path
         style="fill:#273238;fill-opacity:1;stroke-width:0.264583"
         d="m -121.33363,107.34586 c -2.25342,7.27018 0.61296,10.52231 7.79222,10.38963 0.0161,5.81667 1.29196,11.49336 2.32871,17.19662 l 5.10525,-0.22392 c 1.20771,-9.18649 8.436441,-18.91057 -2.59741,-27.00407 z"
         id="path4752"
         sodipodi:nodetypes="cccccc" /><rect
         style="fill:#273238;fill-opacity:1;stroke-width:0.264891"
         id="rect3764"
         width="54.493069"
         height="2.0600121"
         x="-137.71649"
         y="105.82324"
         ry="0.5"
         rx="0.5" /></g><g
       id="g37278"
       transform="translate(61.880959,-228.96013)"><path
         style="fill:#b33569;fill-opacity:1;stroke:none;stroke-width:0.0649999;stroke-dasharray:none;stroke-opacity:0.626761"
         d="m 84.607109,141.45603 -1.01332,-14.37648 11.77986,-0.38 -1.51999,14.94648 z"
         id="path30426" /><path
         style="fill:#545e67;fill-opacity:1;stroke:none;stroke-width:0.0965305;stroke-dasharray:none;stroke-opacity:0.626761"
         d="m 90.228559,125.86246 c 7.4202,-31.368091 2.58436,-42.646092 -0.11861,-44.669028 -0.76805,1.598194 -0.47955,3.590422 0.5788,5.869826 0.63949,1.377224 -1.10144,2.976085 -1.01703,4.358103 0.10363,1.696932 1.70234,1.469295 1.77041,3.19038 0.085,2.150095 -1.71742,4.326606 -1.79463,6.559449 -0.0622,1.79697 1.29302,2.48608 1.11255,4.3133 -0.18085,1.83214 -1.74016,2.9011 -2.01059,4.73624 -0.32465,2.2031 0.99308,3.68779 0.7076,5.89201 -0.24903,1.92244 -1.64722,3.23906 -1.95085,5.15867 -0.24893,1.57477 0.22943,4.43577 0.22943,4.43577 z"
         id="path30484-4-6"
         sodipodi:nodetypes="ccsssssssscc" /><path
         style="fill:#465966;fill-opacity:1;stroke:none;stroke-width:0.101579;stroke-dasharray:none;stroke-opacity:0.626761"
         d="m 91.025739,126.69644 c 2.31476,-30.469918 -5.49879,-40.216912 -9.01528,-41.669708 -0.56728,1.61522 0.16109,3.428084 1.83362,5.385018 1.01055,1.182383 -0.67755,2.954859 -0.3056,4.231082 0.4567,1.567031 2.2535,1.097192 2.67402,2.692491 0.52534,1.992954 -1.11885,4.314447 -0.76401,6.410747 0.28557,1.68709 1.98399,2.11204 2.13922,3.84641 0.15562,1.73902 -1.42838,2.98771 -1.37521,4.74395 0.0638,2.10838 1.87724,3.28186 1.98642,5.38499 0.0952,1.83427 -1.25412,3.28815 -1.22241,5.12858 0.0261,1.50978 1.146,4.10288 1.146,4.10288 z"
         id="path30484-4"
         sodipodi:nodetypes="ccsssssssscc" /><path
         style="fill:#303f44;fill-opacity:1;stroke:none;stroke-width:0.103328;stroke-dasharray:none;stroke-opacity:0.626761"
         d="m 88.481209,126.10728 c 2.89343,-25.22283 -6.87344,-33.291348 -11.26902,-34.493965 -0.7091,1.33707 0.20136,2.837752 2.29201,4.457686 1.26318,0.978772 -0.84693,2.446026 -0.382,3.502476 0.57087,1.297183 2.81686,0.908253 3.3425,2.228833 0.65667,1.64976 -1.39855,3.57147 -0.955,5.30678 0.35695,1.39656 2.47997,1.74833 2.674,3.18404 0.19453,1.43955 -1.78546,2.47321 -1.719,3.92701 0.0797,1.74531 2.34653,2.71671 2.48301,4.45767 0.11898,1.5184 -1.56764,2.72191 -1.528,4.24541 0.0326,1.24979 1.43249,3.39634 1.43249,3.39634 z"
         id="path30484"
         sodipodi:nodetypes="ccsssssssscc" /><path
         style="fill:#2e4042;fill-opacity:1;stroke:none;stroke-width:0.0649999;stroke-dasharray:none;stroke-opacity:0.626761"
         d="m 91.130359,126.12956 c -1.91883,-15.05085 4.55824,-19.86546 7.47324,-20.58308 0.47025,0.79785 -0.13353,1.69333 -1.51998,2.65997 -0.8377,0.58405 0.56165,1.45958 0.25333,2.08998 -0.37858,0.77405 -1.86805,0.54197 -2.21664,1.32998 -0.43548,0.98443 0.92747,2.13115 0.63333,3.16663 -0.23672,0.83335 -1.64464,1.04326 -1.77331,1.89997 -0.12901,0.859 1.18406,1.4758 1.13998,2.34331 -0.0529,1.04145 -1.55614,1.6211 -1.64665,2.65996 -0.0789,0.90605 1.03961,1.6242 1.01332,2.5333 -0.0216,0.74577 -0.94998,2.02665 -0.94998,2.02665 z"
         id="path30482"
         sodipodi:nodetypes="ccsssssssscc" /><rect
         style="fill:#a93a6a;fill-opacity:1;stroke:none;stroke-width:0.0649999;stroke-dasharray:none;stroke-opacity:0.626761"
         id="rect30254"
         width="14.566484"
         height="2.0899739"
         x="81.883812"
         y="125.74956"
         rx="0.27250391"
         ry="0.40776867" /></g></g></svg>
