<?xml version="1.0" encoding="UTF-8" standalone="no"?>
<!-- Created with Inkscape (http://www.inkscape.org/) -->

<svg
   width="202.20039mm"
   height="57.142426mm"
   viewBox="0 0 202.20039 57.142426"
   version="1.1"
   id="svg5"
   xml:space="preserve"
   xmlns:inkscape="http://www.inkscape.org/namespaces/inkscape"
   xmlns:sodipodi="http://sodipodi.sourceforge.net/DTD/sodipodi-0.dtd"
   xmlns:xlink="http://www.w3.org/1999/xlink"
   xmlns="http://www.w3.org/2000/svg"
   xmlns:svg="http://www.w3.org/2000/svg"><sodipodi:namedview
     id="namedview7"
     pagecolor="#ffffff"
     bordercolor="#000000"
     borderopacity="0.25"
     inkscape:showpageshadow="2"
     inkscape:pageopacity="0.0"
     inkscape:pagecheckerboard="0"
     inkscape:deskcolor="#d1d1d1"
     inkscape:document-units="mm"
     showgrid="false"
     showguides="true" /><defs
     id="defs2"><style
       id="style38692">.cls-1{fill:#fff;}.cls-2{fill:url(#GradientFill_1);}.cls-3{fill:url(#GradientFill_1-2);}.cls-4{fill:#0f1010;}.cls-5{fill:#861642;}.cls-6{fill:#bc955b;}</style><linearGradient
       id="GradientFill_1"
       x1="-11.03"
       y1="150.81"
       x2="210"
       y2="128.37"
       gradientUnits="userSpaceOnUse"><stop
         offset="0"
         stop-color="#fcde71"
         id="stop38694" /><stop
         offset="0.13"
         stop-color="#b57d18"
         id="stop38696" /><stop
         offset="0.26"
         stop-color="#fcde71"
         id="stop38698" /><stop
         offset="0.5"
         stop-color="#b57d18"
         id="stop38700" /><stop
         offset="0.67"
         stop-color="#b57d18"
         id="stop38702" /><stop
         offset="0.82"
         stop-color="#fcde71"
         id="stop38704" /><stop
         offset="1"
         stop-color="#b57d18"
         id="stop38706" /></linearGradient><linearGradient
       id="GradientFill_1-2"
       x1="-12.02"
       y1="141.05"
       x2="209.00999"
       y2="118.6"
       xlink:href="#GradientFill_1"
       gradientTransform="matrix(0.26458333,0,0,0.26458333,-72.407376,399.93232)" /><linearGradient
       inkscape:collect="always"
       xlink:href="#GradientFill_1"
       id="linearGradient39071"
       gradientUnits="userSpaceOnUse"
       x1="-11.03"
       y1="150.81"
       x2="210"
       y2="128.37"
       gradientTransform="matrix(0.26458333,0,0,0.26458333,-72.407376,399.93232)" /></defs><g
     inkscape:label="Capa 1"
     inkscape:groupmode="layer"
     id="layer1"
     transform="translate(71.722635,-400.62783)"><path
       class="cls-1"
       d="m -26.63446,402.17863 c -3.704167,-2.03464 -6.977062,-2.06639 -9.9695,-0.0926 -2.38125,1.57162 -4.60375,4.37091 -7.183437,9.06991 l -3.100917,5.64886 -3.100916,-5.64886 c -2.574396,-4.699 -4.79425,-7.49829 -7.180792,-9.06991 -2.995083,-1.97379 -6.241521,-1.94469 -9.964208,0.0926 l -0.0926,0.0529 v 16.78252 c 0,5.25992 2.227791,9.6811 6.408208,12.78996 3.704166,2.75431 8.696854,4.27037 14.022916,4.27037 5.326063,0 10.244667,-1.50548 13.903854,-4.23333 4.146021,-3.09827 6.35,-7.53004 6.35,-12.81906 v -16.79046 z"
       id="path38712"
       style="stroke-width:0.264583"
       inkscape:export-filename="logo-letras.svg"
       inkscape:export-xdpi="96"
       inkscape:export-ydpi="96" /><path
       class="cls-2"
       d="m -22.34821,422.88757 c 0,-0.55827 0.08202,-2.16165 -0.201083,-2.32569 -0.645584,-0.37306 -2.045229,0.51329 -1.997604,2.64584 0.07408,3.40254 -0.664105,5.23345 -0.664105,5.23345 0,0 1.09273,0.0503 0.976313,1.11919 -0.116417,1.06892 -1.275292,2.20398 -2.645833,4.26508 -0.314855,0.47361 -0.5715,0.97103 -0.912813,1.27265 -1.137708,1.00277 -2.423583,1.85208 -2.936875,1.83621 0.505354,-0.13494 2.193396,-1.5875 2.57175,-2.02406 0.378354,-0.43657 3.145896,-4.68048 3.145896,-4.68048 0,0 0.759354,-1.90765 -1.476375,-1.23296 -1.550458,0.46831 -4.209521,3.80471 -6.188604,5.24933 -1.256771,0.91811 -3.071813,0.93927 -5.117042,1.64836 -6.834187,2.35214 -10.681229,6.9215 -7.442729,14.90398 4.677833,-8.8609 10.260542,-4.67255 17.660937,-10.62567 2.664355,-2.14313 4.34975,-7.14375 5.159375,-9.22073 0.650875,-1.62983 0.129646,-5.64356 0.06879,-8.0645 z"
       id="path38714"
       style="fill:url(#linearGradient39071);stroke-width:0.264583" /><path
       class="cls-3"
       d="m -66.237293,440.18603 c 7.408333,5.95312 12.983104,1.76477 17.660938,10.62566 3.243791,-7.98247 -0.608542,-12.55183 -7.44273,-14.90397 -2.039937,-0.70909 -3.854979,-0.73025 -5.114395,-1.64836 -1.979084,-1.44462 -4.638146,-4.78102 -6.19125,-5.24933 -2.233084,-0.67469 -1.476375,1.23296 -1.476375,1.23296 0,0 2.767541,4.24656 3.145896,4.68048 0.378354,0.43391 2.066395,1.88912 2.57175,2.02406 -0.513292,0.0291 -1.799167,-0.83344 -2.936875,-1.83621 -0.341313,-0.30163 -0.597959,-0.79375 -0.912813,-1.27265 -1.362604,-2.0611 -2.521479,-3.19087 -2.645833,-4.26508 -0.124354,-1.07421 0.976312,-1.11919 0.976312,-1.11919 0,0 -0.740833,-1.83091 -0.664104,-5.23346 0.04762,-2.14577 -1.352021,-3.03212 -1.997604,-2.64583 -0.288396,0.16404 -0.187854,1.76742 -0.201083,2.32569 -0.0635,2.42094 -0.579438,6.43467 0.05821,8.07773 0.820208,2.07433 2.505604,7.05379 5.169958,9.2075 z"
       id="path38716"
       style="fill:url(#GradientFill_1-2);stroke-width:0.264583" /><path
       class="cls-4"
       d="m -67.51523,448.55215 c -0.60325,0.35454 -1.272646,0.74613 -1.878542,1.11125 l 1.132417,-1.86796 -0.706438,-0.71437 -2.116666,1.9394 0.452437,0.46037 1.513417,-1.39435 -1.058334,1.8071 0.529167,0.5424 c 0.579438,-0.33867 1.217083,-0.69586 1.804458,-1.05834 l -1.412875,1.50813 0.460375,0.46566 1.9685,-2.11666 z"
       id="path38718"
       style="fill:#ffffff;stroke-width:0.264583" /><path
       class="cls-4"
       d="m -66.472772,452.43094 a 1.2964583,1.2964583 0 0 1 -0.156104,-0.1217 0.1825625,0.1825625 0 0 1 -0.04762,-0.0423 l 1.124479,-1.66952 0.230188,0.127 0.232833,-0.34396 -0.968375,-0.65087 -0.232833,0.34396 0.164041,0.12964 a 0.10583333,0.10583333 0 0 0 0.0344,0.037 l -1.124479,1.66423 -0.227542,-0.1217 -0.224896,0.33602 0.963084,0.65087 z"
       id="path38720"
       style="fill:#ffffff;stroke-width:0.264583" /><polygon
       class="cls-4"
       points="27.73,203.25 30.9,196.26 30.59,204.69 33.38,206.1 38.3,196.38 36.12,195.28 32.93,202.22 33.2,193.81 30.46,192.42 25.55,202.15 "
       id="polygon38722"
       transform="matrix(0.26458333,0,0,0.26458333,-72.407376,399.93232)"
       style="fill:#ffffff" /><path
       class="cls-4"
       d="m -62.599272,454.89422 0.632354,0.22754 c 0.161396,-0.19844 0.365125,-0.43127 0.529167,-0.635 l 0.904875,0.32543 v 0.8308 l 0.648229,0.23548 -0.04233,-3.0824 -0.693209,-0.24871 z m 2.098146,-0.62178 -0.582083,-0.21166 0.619125,-0.79375 z"
       id="path38724"
       style="fill:#ffffff;stroke-width:0.264583" /><polygon
       class="cls-4"
       points="59.93,203.56 52.14,201.46 51.63,203.33 54.18,204.02 51.85,212.66 54.28,213.32 56.62,204.67 59.42,205.43 "
       id="polygon38726"
       transform="matrix(0.26458333,0,0,0.26458333,-72.407376,399.93232)"
       style="fill:#ffffff" /><path
       class="cls-4"
       d="m -55.474043,456.51082 0.399521,-1.97379 0.264583,0.0317 0.08202,-0.40746 -1.140354,-0.23283 -0.08202,0.4101 0.201083,0.0556 a 0.10054167,0.10054167 0 0 0 0.04498,0.0212 l -0.399521,1.96585 -0.264584,-0.0238 -0.08202,0.39688 1.143,0.23018 0.07937,-0.40216 a 1.3678958,1.3678958 0 0 1 -0.1905,-0.0503 0.26458333,0.26458333 0 0 1 -0.05556,-0.0212 z"
       id="path38728"
       style="fill:#ffffff;stroke-width:0.264583" /><polygon
       class="cls-4"
       points="71.74,207.74 70.48,216.61 72.98,216.96 74.24,208.1 77.11,208.5 77.38,206.59 69.4,205.45 69.13,207.37 "
       id="polygon38730"
       transform="matrix(0.26458333,0,0,0.26458333,-72.407376,399.93232)"
       style="fill:#ffffff" /><path
       class="cls-4"
       d="m -50.685085,457.08232 0.1905,-2.3495 -0.642937,-0.0529 -0.232833,2.87073 1.5875,0.12965 0.04233,-0.5424 -0.552979,-0.0291 z"
       id="path38732"
       style="fill:#ffffff;stroke-width:0.264583" /><path
       class="cls-4"
       d="m -47.237564,454.8704 h -0.738187 l -1.127125,2.86279 h 0.672041 c 0.08996,-0.23812 0.206375,-0.52916 0.301625,-0.77258 l 0.960438,0.0159 0.264583,0.79375 h 0.687917 z m -0.711729,1.5875 0.325438,-0.96308 0.293687,0.97102 z"
       id="path38734"
       style="fill:#ffffff;stroke-width:0.264583" /><polygon
       class="cls-4"
       points="94.59,206.39 96.14,203.72 93.87,203.68 92.81,206.36 "
       id="polygon38736"
       transform="matrix(0.26458333,0,0,0.26458333,-72.407376,399.93232)"
       style="fill:#ffffff" /><polygon
       class="cls-4"
       points="103.96,210.73 107.9,218.21 111.02,218.04 110.44,207.15 108,207.28 108.69,214.89 104.74,207.46 101.67,207.62 102.26,218.51 104.69,218.38 "
       id="polygon38738"
       transform="matrix(0.26458333,0,0,0.26458333,-72.407376,399.93232)"
       style="fill:#ffffff" /><polygon
       class="cls-4"
       points="125.36,209.53 124.96,207.23 129.13,206.5 128.8,204.61 122.24,205.76 124.13,216.49 130.74,215.32 130.41,213.42 126.18,214.16 125.7,211.44 129.47,210.78 129.14,208.87 "
       id="polygon38740"
       transform="matrix(0.26458333,0,0,0.26458333,-72.407376,399.93232)"
       style="fill:#ffffff" /><path
       class="cls-4"
       d="m -35.230772,454.21159 c -0.132292,-0.52917 -0.576792,-0.77258 -1.209146,-0.61383 -0.465667,0.11906 -0.976313,0.28046 -0.976313,0.28046 l 0.706438,2.79135 0.648229,-0.16404 -0.277812,-1.09802 0.124354,-0.0317 0.92075,0.93662 0.762,-0.19314 c -0.330729,-0.29634 -0.746125,-0.67734 -1.076854,-0.98955 a 0.84931249,0.84931249 0 0 0 0.378354,-0.9181 z m -0.981604,0.70115 -0.264584,0.0661 -0.211666,-0.80698 0.264583,-0.0661 c 0.341312,-0.0873 0.484187,0.037 0.547687,0.29104 a 0.40745833,0.40745833 0 0 1 -0.33602,0.51594 z"
       id="path38742"
       style="fill:#ffffff;stroke-width:0.264583" /><polygon
       class="cls-4"
       points="146.74,204.2 145.98,201.99 149.99,200.61 149.36,198.8 143.07,200.96 146.61,211.27 152.96,209.09 152.33,207.25 148.27,208.65 147.37,206.04 151,204.79 150.37,202.96 "
       id="polygon38744"
       transform="matrix(0.26458333,0,0,0.26458333,-72.407376,399.93232)"
       style="fill:#ffffff" /><path
       class="cls-4"
       d="m -29.653356,453.30672 c -0.219604,-0.49213 -0.674687,-0.47625 -1.074208,-0.47096 -0.264583,0 -0.529167,0 -0.597958,-0.1614 -0.06879,-0.16139 0.02381,-0.29898 0.288395,-0.41539 a 3.8179375,3.8179375 0 0 1 0.566209,-0.18257 c -0.03175,-0.0979 -0.113771,-0.37041 -0.137584,-0.48154 l -0.08731,0.0318 a 2.4077083,2.4077083 0 0 0 -0.579438,0.17727 c -0.492125,0.21961 -0.859895,0.58738 -0.582083,1.21179 0.209021,0.46832 0.658813,0.46832 1.058333,0.46567 0.264584,0 0.529167,0 0.605896,0.16669 0.105834,0.24077 -0.182562,0.41539 -0.359833,0.49477 a 3.4395833,3.4395833 0 0 1 -0.653521,0.1561 l 0.224896,0.49213 a 1.9711458,1.9711458 0 0 0 0.701146,-0.17198 c 0.560916,-0.254 0.894291,-0.71173 0.627062,-1.31233 z"
       id="path38746"
       style="fill:#ffffff;stroke-width:0.264583" /><polygon
       class="cls-4"
       points="173.56,185.32 167.06,190.1 168.21,191.66 170.34,190.09 175.64,197.3 177.67,195.81 172.37,188.6 174.71,186.88 "
       id="polygon38748"
       transform="matrix(0.26458333,0,0,0.26458333,-72.407376,399.93232)"
       style="fill:#ffffff" /><path
       class="cls-4"
       d="m -24.504564,446.87205 -0.425979,0.4736 1.397,1.25148 a 0.51064583,0.51064583 0 1 1 -0.679979,0.75936 l -1.397,-1.25148 -0.428625,0.47625 1.397,1.25148 c 0.566208,0.508 1.119187,0.37835 1.571625,-0.127 0.452437,-0.50536 0.529166,-1.07686 -0.03704,-1.5875 z"
       id="path38750"
       style="fill:#ffffff;stroke-width:0.264583" /><polygon
       class="cls-4"
       points="177.16,176.18 175.63,177.88 176.97,180.44 178.16,179.11 "
       id="polygon38752"
       transform="matrix(0.26458333,0,0,0.26458333,-72.407376,399.93232)"
       style="fill:#ffffff" /><rect
       class="cls-5"
       x="-44.993896"
       y="434.19321"
       width="2.7463751"
       height="0.98954165"
       id="rect38754"
       style="stroke-width:0.264583" /><rect
       class="cls-5"
       x="-48.407021"
       y="434.19321"
       width="2.7463751"
       height="0.98954165"
       id="rect38756"
       style="stroke-width:0.264583" /><polygon
       class="cls-5"
       points="82.81,123.36 81.35,113.64 72.7,118.12 "
       id="polygon38758"
       transform="matrix(0.26458333,0,0,0.26458333,-72.407376,399.93232)" /><polygon
       class="cls-5"
       points="80.85,110.34 79.51,101.43 72.53,105.5 "
       id="polygon38760"
       transform="matrix(0.26458333,0,0,0.26458333,-72.407376,399.93232)" /><polygon
       class="cls-5"
       points="71.25,130.3 81.46,125.83 61.05,125.83 "
       id="polygon38762"
       transform="matrix(0.26458333,0,0,0.26458333,-72.407376,399.93232)" /><polygon
       class="cls-5"
       points="79,98.1 77.82,90.23 72.44,93.78 "
       id="polygon38764"
       transform="matrix(0.26458333,0,0,0.26458333,-72.407376,399.93232)" /><polygon
       class="cls-5"
       points="60.85,113.62 59.38,123.39 69.54,118.12 "
       id="polygon38766"
       transform="matrix(0.26458333,0,0,0.26458333,-72.407376,399.93232)" /><polygon
       class="cls-5"
       points="62.69,101.45 61.35,110.32 69.63,105.5 "
       id="polygon38768"
       transform="matrix(0.26458333,0,0,0.26458333,-72.407376,399.93232)" /><polygon
       class="cls-5"
       points="66.09,78.87 64.72,87.97 77.47,87.97 76.1,78.87 "
       id="polygon38770"
       transform="matrix(0.26458333,0,0,0.26458333,-72.407376,399.93232)" /><polygon
       class="cls-5"
       points="64.38,90.21 63.19,98.13 69.79,93.78 "
       id="polygon38772"
       transform="matrix(0.26458333,0,0,0.26458333,-72.407376,399.93232)" /><polygon
       class="cls-5"
       points="65.84,89.42 71.12,92.9 76.39,89.42 "
       id="polygon38774"
       transform="matrix(0.26458333,0,0,0.26458333,-72.407376,399.93232)" /><polygon
       class="cls-5"
       points="60.64,124.37 81.61,124.37 71.12,118.94 "
       id="polygon38776"
       transform="matrix(0.26458333,0,0,0.26458333,-72.407376,399.93232)" /><path
       class="cls-5"
       d="m -61.252543,420.63597 a 0.88370832,0.88370832 0 0 1 0.881063,-0.69057 h 0.616479 v -0.39952 a 0.87841666,0.87841666 0 0 0 -0.896938,-0.8546 h -1.058333 a 0.87841666,0.87841666 0 0 0 -0.907521,0.8546 v 3.2729 h 0.396875 a 0.61647916,0.61647916 0 0 1 0.100542,0 v -1.08744 a 1.1535833,1.1535833 0 0 1 0.867833,-1.09537 z"
       id="path38780"
       style="stroke-width:0.264583" /><polygon
       class="cls-5"
       points="32.51,87.41 32.5,87.4 "
       id="polygon38782"
       transform="matrix(0.26458333,0,0,0.26458333,-72.407376,399.93232)" /><polygon
       class="cls-5"
       points="71.12,94.65 63.95,99.38 78.28,99.38 "
       id="polygon38784"
       transform="matrix(0.26458333,0,0,0.26458333,-72.407376,399.93232)" /><polygon
       class="cls-5"
       points="79.64,112.9 62.6,112.9 71.12,117.31 "
       id="polygon38786"
       transform="matrix(0.26458333,0,0,0.26458333,-72.407376,399.93232)" /><polygon
       class="cls-5"
       points="64.52,100.83 71.08,104.65 77.64,100.83 "
       id="polygon38788"
       transform="matrix(0.26458333,0,0,0.26458333,-72.407376,399.93232)" /><polygon
       class="cls-5"
       points="71.08,106.34 62.32,111.44 79.84,111.44 "
       id="polygon38790"
       transform="matrix(0.26458333,0,0,0.26458333,-72.407376,399.93232)" /><polygon
       class="cls-5"
       points="95.57,104.85 98.14,106.53 100.72,104.85 "
       id="polygon38792"
       transform="matrix(0.26458333,0,0,0.26458333,-72.407376,399.93232)" /><polygon
       class="cls-5"
       points="102,109.04 101.42,105.24 98.79,106.95 "
       id="polygon38794"
       transform="matrix(0.26458333,0,0,0.26458333,-72.407376,399.93232)" /><polygon
       class="cls-5"
       points="101.33,110.36 94.92,110.36 98.13,112.2 "
       id="polygon38796"
       transform="matrix(0.26458333,0,0,0.26458333,-72.407376,399.93232)" /><polygon
       class="cls-5"
       points="98.14,107.37 94.64,109.65 101.64,109.65 "
       id="polygon38798"
       transform="matrix(0.26458333,0,0,0.26458333,-72.407376,399.93232)" /><polygon
       class="cls-5"
       points="95.69,99.75 95.02,104.14 101.25,104.14 100.58,99.75 "
       id="polygon38800"
       transform="matrix(0.26458333,0,0,0.26458333,-72.407376,399.93232)" /><polygon
       class="cls-5"
       points="98.83,112.61 102.9,114.95 102.24,110.65 "
       id="polygon38802"
       transform="matrix(0.26458333,0,0,0.26458333,-72.407376,399.93232)" /><polygon
       class="cls-5"
       points="94.86,105.23 94.28,109.05 97.5,106.95 "
       id="polygon38804"
       transform="matrix(0.26458333,0,0,0.26458333,-72.407376,399.93232)" /><polygon
       class="cls-5"
       points="93.85,115.48 102.4,115.48 98.13,113.02 "
       id="polygon38806"
       transform="matrix(0.26458333,0,0,0.26458333,-72.407376,399.93232)" /><rect
       class="cls-5"
       x="-44.993896"
       y="432.60837"
       width="2.7463751"
       height="0.9868958"
       id="rect38808"
       style="stroke-width:0.264583" /><polygon
       class="cls-5"
       points="94.03,110.66 93.38,114.94 97.42,112.61 "
       id="polygon38810"
       transform="matrix(0.26458333,0,0,0.26458333,-72.407376,399.93232)" /><path
       class="cls-5"
       d="m -32.653731,420.36344 v 1.93411 a 3.1882291,3.1882291 0 0 1 1.621896,-1.43669 l 0.06615,-3.06387 a 2.8045833,2.8045833 0 0 0 -1.688042,2.56645 z"
       id="path38812"
       style="stroke-width:0.264583" /><path
       class="cls-5"
       d="m -32.653731,415.3734 v 3.46869 a 3.1935208,3.1935208 0 0 1 1.695979,-1.46579 l 0.08996,-4.61433 a 2.8019375,2.8019375 0 0 0 -1.785938,2.61143 z"
       id="path38814"
       style="stroke-width:0.264583" /><rect
       class="cls-5"
       x="-48.407021"
       y="432.60837"
       width="2.7463751"
       height="0.9868958"
       id="rect38816"
       style="stroke-width:0.264583" /><rect
       class="cls-5"
       x="-41.578129"
       y="432.60837"
       width="2.7463751"
       height="0.9868958"
       id="rect38818"
       style="stroke-width:0.264583" /><path
       class="cls-5"
       d="m -26.63446,402.17863 c -3.704167,-2.03464 -6.977062,-2.06639 -9.9695,-0.0926 -2.38125,1.57162 -4.60375,4.37091 -7.183437,9.06991 l -3.100917,5.64886 -3.100916,-5.64886 c -2.574396,-4.699 -4.79425,-7.49829 -7.180792,-9.06991 -2.995083,-1.97379 -6.241521,-1.94469 -9.964208,0.0926 l -0.0926,0.0529 v 16.78252 c 0,5.25992 2.227791,9.6811 6.408208,12.78996 3.704166,2.75431 8.696854,4.27037 14.022916,4.27037 5.326063,0 10.244667,-1.50548 13.903854,-4.23333 4.146021,-3.09827 6.35,-7.53004 6.35,-12.81906 v -16.79046 z m -27.977041,14.38275 c 0.248708,-0.91281 1.629833,-2.05316 1.153583,-2.66964 0.587375,0.29368 1.029229,1.01335 0.926042,1.95527 -0.103188,0.94191 -0.8255,1.10596 -0.719667,2.13783 -0.637646,-0.75935 0.07144,-1.73567 0.148167,-2.19604 -0.346604,0.34131 -0.971021,0.77787 -0.851959,1.6166 0.103188,0.71702 0.74348,1.05834 0.529167,1.85209 -0.06085,-0.0873 -0.08467,-0.23813 -0.142875,-0.34396 -0.383646,-0.64823 -1.362604,-1.16946 -1.042458,-2.35215 z m -9.789583,10.86115 c -0.264584,-0.42069 -0.513292,-0.85196 -0.735542,-1.28852 h 0.735542 z m 0,-1.57163 h -0.886355 c -0.09789,-0.19843 -0.187854,-0.39952 -0.264583,-0.6006 h 1.153583 z m 14.350999,9.68111 -0.3175,-2.11667 -2.725208,1.19856 1.690688,0.74084 c -0.595313,-0.0952 -1.169459,-0.21167 -1.72773,-0.34132 l -0.436562,-0.1905 -0.127,0.0556 c -0.195792,-0.0503 -0.383646,-0.10848 -0.574146,-0.16405 l 0.227542,-0.10054 -2.791354,-1.22237 -0.05556,0.37835 a 16.949208,16.949208 0 0 1 -7.053791,-5.65679 v -4.5429 a 0.87841666,0.87841666 0 0 0 -0.894292,-0.79375 h -1.127125 a 2.6458333,2.6458333 0 0 1 1.542521,2.20134 h -1.259417 a 15.875,15.875 0 0 1 -0.762,-2.38125 v 0 a 1.0927292,1.0927292 0 0 1 0.185208,-0.0635 1.2885208,1.2885208 0 0 0 -0.195791,0.0609 15.697729,15.697729 0 0 1 -0.399521,-3.57981 v -1.39965 h 0.875771 l 0.145521,4.87892 h 0.762 l 0.140229,-12.90902 h 1.251479 l -0.105833,13.462 a 0.65087499,0.65087499 0 0 1 0.49477,-0.22754 h 0.383646 v -3.2729 a 1.1721042,1.1721042 0 0 1 1.195917,-1.14035 h 1.058333 a 1.1721042,1.1721042 0 0 1 1.2065,1.14035 v 0.39952 h 0.579438 a 0.87577082,0.87577082 0 0 1 0.896937,0.85461 v 1.03187 h -3.304646 v -0.889 a 0.85989582,0.85989582 0 0 0 -0.547687,0.79375 v 1.21444 a 0.60324999,0.60324999 0 0 1 0.259292,0.48683 v 6.16215 h 0.298979 v -6.64898 h 3.280833 v 6.66221 h 0.703792 v 3.92112 l 1.918229,-12.7291 h -0.508 v -1.05833 h 4.54025 v 1.05833 h -0.510646 l 2.230437,14.77962 z m -7.9375,-13.41702 v 0.52916 h -3.283479 v -0.52916 z m 23.283334,10.49337 h -0.04498 v 0.0265 c -0.219604,0.12965 -0.4445,0.26458 -0.669395,0.37306 v -0.39952 h -2.74373 v 0.9869 h 1.550459 q -0.714375,0.32543 -1.452563,0.59796 h -0.0979 v 0.0344 c -0.22225,0.082 -0.4445,0.1614 -0.669395,0.23548 v -0.26458 h -2.746375 v 0.98954 h 0.02646 a 26.291646,26.291646 0 0 1 -5.236104,0.52917 q -1.296458,0 -2.502958,-0.0979 v -3.83117 h 15.851187 c -0.407458,0.2884 -0.828146,0.56357 -1.262063,0.82021 z m 3.47927,-2.69081 0.182563,-8.63071 a 2.8019375,2.8019375 0 0 0 -1.613959,2.53471 v 6.80244 h 0.677334 q -0.545042,0.47889 -1.127125,0.91281 h -15.451667 v -0.91281 h 0.600605 l 0.656166,-4.30742 h -0.235479 v -0.52917 h 1.016 l -0.875771,-0.50535 v -0.4789 h 1.93675 v 0.48948 l -0.889,0.51594 h 1.013354 v 0.52917 h -0.248708 l 0.648229,4.25714 0.235479,-17.00741 0.0635,-0.11113 h 0.79375 l 0.238125,17.16881 h 0.28575 l 0.235479,-17.16881 h 0.854605 l 0.248708,17.14765 h 0.947208 l 0.328084,-6.64105 h 1.185333 l 0.328083,6.64105 h 0.386292 l 0.328083,-6.64105 h 0.66675 l 0.187854,-8.8212 h 1.182688 l 0.325437,15.46225 h 3.074459 V 415.3734 a 3.175,3.175 0 0 1 2.188104,-3.02683 l 0.07673,-3.6195 h 1.669521 l 0.378354,17.83292 a 14.816666,14.816666 0 0 1 -2.495021,3.35756 z"
       id="path38820"
       style="stroke-width:0.264583" /><path
       class="cls-6"
       d="m 16.757206,414.21982 v -1.26206 h -1.457854 v 1.26206 h -0.568854 v -3.00038 h 0.568854 v 1.2118 h 1.457854 v -1.2118 h 0.5715 v 3.00038 z"
       id="path38822"
       style="stroke-width:0.264583" /><path
       class="cls-6"
       d="m 21.233956,412.72228 c 0,0.9816 -0.441854,1.53458 -1.309687,1.53458 -0.867834,0 -1.314979,-0.55298 -1.314979,-1.53458 0,-0.98161 0.436562,-1.55311 1.307041,-1.55311 0.870479,0 1.317625,0.55563 1.317625,1.55311 z m -0.574146,0 c 0,-0.68263 -0.224896,-1.04246 -0.735541,-1.04246 -0.510646,0 -0.732896,0.35983 -0.732896,1.04246 0,0.68262 0.22225,1.02394 0.732896,1.02394 0.510645,0 0.735541,-0.35719 0.735541,-1.02394 z"
       id="path38824"
       style="stroke-width:0.264583" /><path
       class="cls-6"
       d="m 24.615331,414.21982 -1.561042,-2.04788 v 2.04788 h -0.568854 v -3.00038 h 0.529167 l 1.55575,2.05582 v -2.05582 h 0.568854 v 3.00038 z"
       id="path38826"
       style="stroke-width:0.264583" /><path
       class="cls-6"
       d="m 29.316977,412.72228 c 0,0.9816 -0.529167,1.53458 -1.4605,1.53458 -0.931333,0 -1.452563,-0.55298 -1.452563,-1.53458 0,-0.98161 0.529167,-1.55311 1.452563,-1.55311 0.923396,0 1.4605,0.55563 1.4605,1.55311 z m -0.579438,0 c 0,-0.67734 -0.320145,-1.03188 -0.881062,-1.03188 -0.560917,0 -0.878417,0.35454 -0.878417,1.03188 0,0.67733 0.320146,1.016 0.878417,1.016 0.558271,0 0.881062,-0.34925 0.881062,-1.016 z"
       id="path38828"
       style="stroke-width:0.264583" /><path
       class="cls-6"
       d="m 33.066123,414.21982 h -0.619125 l -0.706438,-0.91017 h -0.600604 v 0.91017 h -0.568854 v -3.00038 h 1.153583 c 0.79375,0 1.262063,0.381 1.262063,1.05834 a 0.94456249,0.94456249 0 0 1 -0.682625,0.93927 l 0.762,0.94721 z m -1.322917,-1.39435 c 0.431271,0 0.677333,-0.19844 0.677333,-0.52917 0,-0.33073 -0.246062,-0.54769 -0.677333,-0.55298 h -0.595312 v 1.09008 z"
       id="path38830"
       style="stroke-width:0.264583" /><path
       class="cls-6"
       d="m 34.595414,414.21982 h -0.608541 l 1.201208,-2.99508 h 0.767292 l 1.201208,2.99508 h -0.608542 l -0.243416,-0.62971 h -1.4605 z m 1.0795,-2.23573 a 2.3203958,2.3203958 0 0 1 -0.103187,-0.32808 3.317875,3.317875 0 0 1 -0.103188,0.32808 l -0.425979,1.08744 h 1.058333 z"
       id="path38832"
       style="stroke-width:0.264583" /><path
       class="cls-6"
       d="m 39.373789,411.21944 c 0.756709,0 1.135063,0.28046 1.135063,0.82815 a 0.59531249,0.59531249 0 0 1 -0.468313,0.58473 c 0.447146,0.10319 0.66675,0.36777 0.66675,0.73025 0,0.56092 -0.425979,0.84137 -1.285875,0.84137 h -1.113896 v -2.9845 z m -0.500062,1.2118 h 0.637646 c 0.291041,0 0.457729,-0.12171 0.457729,-0.33338 0,-0.26458 -0.195792,-0.37835 -0.600604,-0.37835 h -0.500063 z m 0,1.27793 h 0.560916 q 0.682625,0 0.682625,-0.38893 c 0,-0.26459 -0.216958,-0.40746 -0.600604,-0.40746 h -0.642937 z"
       id="path38834"
       style="stroke-width:0.264583" /><path
       class="cls-6"
       d="m 41.956123,414.21982 v -3.00038 h 0.568854 v 2.47121 h 1.423458 v 0.52917 z"
       id="path38836"
       style="stroke-width:0.264583" /><path
       class="cls-6"
       d="m 45.149643,414.21982 v -3.00038 h 2.087563 v 0.52917 h -1.518708 v 0.72231 h 1.322916 v 0.50536 h -1.322916 v 0.71437 h 1.558395 v 0.52917 z"
       id="path38838"
       style="stroke-width:0.264583" /><path
       class="cls-6"
       d="m 50.793206,414.21982 h -0.608542 l 1.201208,-2.99508 h 0.767292 l 1.203854,2.99508 h -0.616479 l -0.246062,-0.62971 h -1.457855 z m 1.0795,-2.23573 a 3.317875,3.317875 0 0 1 -0.103188,-0.32808 3.317875,3.317875 0 0 1 -0.103187,0.32808 l -0.425979,1.08744 h 1.058333 z"
       id="path38840"
       style="stroke-width:0.264583" /><path
       class="cls-6"
       d="m 55.478977,414.21982 h -0.563563 v -0.97367 l -1.116542,-2.02671 h 0.587375 l 0.674688,1.20121 a 1.9949583,1.9949583 0 0 1 0.134937,0.29634 2.2754166,2.2754166 0 0 1 0.134938,-0.29634 l 0.672042,-1.20121 h 0.59002 l -1.116541,2.02671 z"
       id="path38842"
       style="stroke-width:0.264583" /><path
       class="cls-6"
       d="m 60.318206,412.83076 c 0,0.93133 -0.455084,1.4261 -1.304396,1.4261 -0.849313,0 -1.307042,-0.49477 -1.322917,-1.4261 v -1.61132 h 0.568854 v 1.61132 c 0,0.58737 0.264584,0.90223 0.74348,0.90223 0.478895,0 0.735541,-0.31486 0.735541,-0.90223 v -1.61132 h 0.568854 z"
       id="path38844"
       style="stroke-width:0.264583" /><path
       class="cls-6"
       d="m 63.821289,414.21982 -1.55575,-2.05317 v 0.20109 1.85208 h -0.568854 v -3.00038 h 0.529166 l 1.55575,2.05582 v -0.13759 -1.91823 h 0.568855 v 3.00038 z"
       id="path38846"
       style="stroke-width:0.264583" /><path
       class="cls-6"
       d="m 67.028039,411.74332 v 2.4765 h -0.555625 v -2.4765 h -1.008063 v -0.52917 h 2.582334 v 0.52917 z"
       id="path38848"
       style="stroke-width:0.264583" /><path
       class="cls-6"
       d="M 69.115601,414.21982 H 68.50706 l 1.203854,-2.99508 h 0.756708 l 1.211792,2.99508 h -0.608542 l -0.246062,-0.62971 h -1.457854 z m 1.087438,-2.24102 a 3.317875,3.317875 0 0 1 -0.103188,-0.32808 3.317875,3.317875 0 0 1 -0.103187,0.32808 l -0.425979,1.08744 h 1.058333 z"
       id="path38850"
       style="stroke-width:0.264583" /><path
       class="cls-6"
       d="m 75.568789,412.34922 v -0.15346 l -0.867834,2.02406 H 74.30408 l -0.859895,-2.01877 v 0.13758 l -0.05292,1.88119 h -0.574146 l 0.111125,-2.99508 h 0.664104 l 0.844021,1.97379 c 0.0291,0.0714 0.04762,0.14552 0.0635,0.19579 a 1.1773958,1.1773958 0 0 1 0.07408,-0.19579 l 0.844021,-1.97909 h 0.661459 l 0.119062,3.00038 h -0.574146 z"
       id="path38852"
       style="stroke-width:0.264583" /><path
       class="cls-6"
       d="m 77.688101,414.21982 v -3.00038 h 0.568854 v 3.00038 z"
       id="path38854"
       style="stroke-width:0.264583" /><path
       class="cls-6"
       d="m 79.759789,414.21982 v -3.00038 h 2.084916 v 0.52917 h -1.516062 v 0.72231 h 1.322917 v 0.50536 h -1.322917 v 0.71437 h 1.55575 v 0.52917 z"
       id="path38856"
       style="stroke-width:0.264583" /><path
       class="cls-6"
       d="m 85.316039,414.21982 -1.561042,-2.04788 v 2.04788 h -0.568854 v -3.00038 h 0.529167 l 1.55575,2.05582 v -0.13759 -1.91823 h 0.5715 v 3.00038 z"
       id="path38858"
       style="stroke-width:0.264583" /><path
       class="cls-6"
       d="m 88.52808,411.74332 v 2.4765 h -0.563562 v -2.4765 h -1.005417 v -0.52917 h 2.579688 v 0.52917 z"
       id="path38860"
       style="stroke-width:0.264583" /><path
       class="cls-6"
       d="m 93.309101,412.72228 c 0,0.9816 -0.529167,1.53458 -1.457854,1.53458 -0.928688,0 -1.452563,-0.55298 -1.452563,-1.53458 0,-0.98161 0.529167,-1.55311 1.452563,-1.55311 0.923396,0 1.457854,0.55563 1.457854,1.55311 z m -0.579437,0 c 0,-0.67734 -0.3175,-1.03188 -0.878417,-1.03188 -0.560917,0 -0.878417,0.35454 -0.878417,1.03188 0,0.67733 0.320146,1.016 0.878417,1.016 0.558271,0 0.878417,-0.34925 0.878417,-1.016 z"
       id="path38862"
       style="stroke-width:0.264583" /><path
       class="cls-6"
       d="m 97.439247,411.21944 c 1.058333,0 1.656292,0.55298 1.656292,1.48167 0,0.92869 -0.605896,1.51871 -1.656292,1.51871 h -0.981604 v -3.00038 z m 0,2.47915 c 0.6985,0 1.0795,-0.34925 1.0795,-0.99748 0,-0.64823 -0.373063,-0.96573 -1.0795,-0.96573 h -0.41275 v 1.95527 z"
       id="path38864"
       style="stroke-width:0.264583" /><path
       class="cls-6"
       d="m 100.36554,414.21982 v -3.00038 h 2.08492 v 0.52917 h -1.51607 v 0.72231 h 1.32292 v 0.50536 h -1.32292 v 0.71437 h 1.54782 v 0.52917 z"
       id="path38866"
       style="stroke-width:0.264583" /><path
       class="cls-5"
       d="m 73.505039,417.79963 c 1.553104,0 3.000375,0.89429 3.000375,2.71198 0,1.81769 -1.447271,2.70404 -3.000375,2.70404 -1.553104,0 -3.000375,-0.89429 -3.000375,-2.70933 0,-1.81504 1.447271,-2.70669 3.000375,-2.70669 z m -3.003021,17.71121 v -11.19452 a 0.37041666,0.37041666 0 0 1 0.370417,-0.37042 h 5.262562 a 0.3730625,0.3730625 0 0 1 0.373063,0.37042 v 13.82448 a 0.3730625,0.3730625 0 0 1 -0.373063,0.37306 h -2.629958 a 3.0030208,3.0030208 0 0 1 -3.003021,-3.00302 z"
       id="path38868"
       style="stroke-width:0.264583" /><path
       class="cls-5"
       d="m 90.742643,435.51084 v -17.34608 a 0.3730625,0.3730625 0 0 1 0.362479,-0.37307 h 2.645833 a 3.0030208,3.0030208 0 0 1 3.003021,3.00303 v 17.34608 a 0.3730625,0.3730625 0 0 1 -0.370417,0.37306 h -2.632604 a 3.0030208,3.0030208 0 0 1 -3.008312,-3.00302 z"
       id="path38870"
       style="stroke-width:0.264583" /><path
       class="cls-5"
       d="m 43.350477,425.1868 a 0.37041666,0.37041666 0 0 1 0.264583,-0.44186 c 3.458104,-0.90222 4.868333,-1.09802 6.278562,-1.09802 4.400021,0 6.36323,1.75419 6.36323,5.97694 v 8.51694 a 0.3730625,0.3730625 0 0 1 -0.370417,0.37306 h -3.96875 a 1.666875,1.666875 0 0 1 -1.666875,-1.66687 v 0 c -1.058333,1.30968 -2.259542,1.9341 -3.685646,1.9341 -2.973916,0 -4.728104,-0.9525 -4.728104,-4.60904 0,-3.09298 2.116667,-4.54819 6.215062,-4.54819 h 2.198688 c 0,-0.86254 -0.296333,-1.45785 -1.545167,-1.45785 a 16.769291,16.769291 0 0 0 -2.196041,0.18256 2.5982083,2.5982083 0 0 1 -2.910417,-1.99231 z m 5.537729,6.96383 c -0.849313,0 -1.410229,0.49213 -1.426104,1.21973 a 1.0583333,1.0583333 0 0 0 0.968375,1.05833 3.1935208,3.1935208 0 0 0 1.825625,-0.46566 v -1.8124 z"
       id="path38872"
       style="stroke-width:0.264583" /><path
       class="cls-5"
       d="m 100.18033,425.1868 a 0.3730625,0.3730625 0 0 1 0.26458,-0.44186 c 3.46075,-0.90222 4.87098,-1.09802 6.28121,-1.09802 4.40002,0 6.35,1.75419 6.35,5.97694 v 8.51694 a 0.37041666,0.37041666 0 0 1 -0.37041,0.37306 h -3.96875 a 1.6642291,1.6642291 0 0 1 -1.66423,-1.66687 v 0 c -1.05834,1.30968 -2.25955,1.9341 -3.6883,1.9341 -2.97127,0 -4.725454,-0.9525 -4.725454,-4.60904 0,-3.09298 2.116664,-4.54819 6.212414,-4.54819 h 2.20134 c 0,-0.86254 -0.29898,-1.45785 -1.54782,-1.45785 a 16.734896,16.734896 0 0 0 -2.19339,0.18256 2.6008541,2.6008541 0 0 1 -2.91042,-1.99231 z m 5.54038,6.96383 c -0.85196,0 -1.41288,0.49213 -1.42875,1.21973 a 1.0583333,1.0583333 0 0 0 0.97102,1.05833 3.1935208,3.1935208 0 0 0 1.82562,-0.46566 v -1.8124 z"
       id="path38874"
       style="stroke-width:0.264583" /><path
       class="cls-5"
       d="m 30.840977,425.90647 c 1.960562,-1.60338 3.328458,-2.2278 4.876271,-2.2278 2.97127,0 4.130145,1.54517 4.130145,5.49805 v 8.96408 a 0.3730625,0.3730625 0 0 1 -0.370416,0.37306 h -2.629959 a 3.0056666,3.0056666 0 0 1 -3.00302,-3.00567 v -4.54818 c 0,-1.24884 -0.209021,-1.5875 -1.042459,-1.5875 -0.711729,0 -1.36525,0.4445 -1.960562,1.03981 v 7.71525 a 0.3730625,0.3730625 0 0 1 -0.373063,0.37306 h -5.262562 a 0.3730625,0.3730625 0 0 1 -0.370417,-0.37306 v -13.81125 a 0.37041666,0.37041666 0 0 1 0.370417,-0.37042 h 3.672417 a 1.9632083,1.9632083 0 0 1 1.963208,1.96057 z"
       id="path38876"
       style="stroke-width:0.264583" /><path
       class="cls-5"
       d="m 121.47135,425.90647 c 1.96056,-1.60338 3.32846,-2.2278 4.87363,-2.2278 2.97391,0 4.13279,1.54517 4.13279,5.49805 v 8.96408 a 0.3730625,0.3730625 0 0 1 -0.37042,0.37306 h -2.62996 a 3.0083125,3.0083125 0 0 1 -3.00566,-3.00567 v -4.54818 c 0,-1.24884 -0.20638,-1.5875 -1.03982,-1.5875 -0.71173,0 -1.36789,0.4445 -1.96056,1.03981 v 7.71525 a 0.3730625,0.3730625 0 0 1 -0.37306,0.37306 h -5.26256 a 0.3730625,0.3730625 0 0 1 -0.37042,-0.37306 v -13.81125 a 0.37041666,0.37041666 0 0 1 0.37042,-0.37042 h 3.67241 a 1.9632083,1.9632083 0 0 1 1.96321,1.96057 z"
       id="path38878"
       style="stroke-width:0.264583" /><path
       class="cls-5"
       d="m 68.530872,437.25444 -0.502708,-3.07445 a 0.3730625,0.3730625 0 0 0 -0.367771,-0.31221 h -1.468437 c -1.248834,0 -1.545167,-0.59531 -1.545167,-1.45786 v -4.69635 h 3.108854 a 0.37041666,0.37041666 0 0 0 0.373063,-0.37042 v -3.76502 a 0.35454166,0.35454166 0 0 0 -0.354542,-0.36248 h -3.127375 v -3.29406 a 2.1166666,2.1166666 0 0 0 -2.116667,-2.11667 H 59.01381 a 0.3730625,0.3730625 0 0 0 -0.373063,0.37042 v 5.04031 h -0.98425 a 0.37041666,0.37041666 0 0 0 -0.373062,0.37042 v 3.73592 a 0.37041666,0.37041666 0 0 0 0.373062,0.37041 h 0.98425 v 5.00857 c 0,4.31006 1.545167,5.97429 5.172604,5.97429 1.635125,0 3.52425,-0.43657 4.545542,-1.05834 a 0.37041666,0.37041666 0 0 0 0.171979,-0.36248 z"
       id="path38880"
       style="stroke-width:0.264583" /><path
       class="cls-5"
       d="m 88.768851,437.25444 -0.505354,-3.07445 a 0.37041666,0.37041666 0 0 0 -0.365125,-0.31221 h -1.468438 c -1.248833,0 -1.547812,-0.59531 -1.547812,-1.45786 v -4.69635 h 3.1115 a 0.36777083,0.36777083 0 0 0 0.370417,-0.37042 v -3.76502 a 0.35454166,0.35454166 0 0 0 -0.354542,-0.36248 h -3.127375 v -3.29406 a 2.1166666,2.1166666 0 0 0 -2.116667,-2.11667 h -3.516312 a 0.37041666,0.37041666 0 0 0 -0.370417,0.37042 v 5.04031 H 77.89183 a 0.36777083,0.36777083 0 0 0 -0.370416,0.37042 v 3.73592 a 0.36777083,0.36777083 0 0 0 0.370416,0.37041 h 0.986896 v 5.00857 c 0,4.31006 1.545167,5.97429 5.172604,5.97429 1.63248,0 3.52425,-0.43657 4.545542,-1.05834 a 0.37041666,0.37041666 0 0 0 0.171979,-0.36248 z"
       id="path38882"
       style="stroke-width:0.264583" /><path
       class="cls-5"
       d="m 7.2083938,428.21099 v -1.08215 l -3.9184791,9.82398 a 2.4791458,2.4791458 0 0 1 -2.30187496,1.56104 H 0.35303975 a 2.31775,2.31775 0 0 1 -2.15635415,-1.47108 l -3.8920208,-9.91394 v 0.90223 l -0.15875,6.67808 a 3.8973125,3.8973125 0 0 1 -3.8973124,3.80471 h -2.5267704 a 0.32014583,0.32014583 0 0 1 -0.3175,-0.33337 l 0.873125,-21.33336 a 0.32014583,0.32014583 0 0 1 0.320145,-0.30691 h 4.5481878 a 3.8946666,3.8946666 0 0 1 3.5983333,2.40241 l 3.39724999,8.18621 0.0185208,0.0423 a 0.59002083,0.59002083 0 0 0 1.09272921,-0.0238 v -0.0185 l 3.4395833,-8.20208 a 3.8973125,3.8973125 0 0 1 3.5956874,-2.38125 H 12.88106 a 0.3175,0.3175 0 0 1 0.3175,0.30691 l 0.873125,21.2778 a 0.37570833,0.37570833 0 0 1 -0.373062,0.38893 h -2.497667 a 3.8973125,3.8973125 0 0 1 -3.8946663,-3.84439 z"
       id="path38884"
       style="stroke-width:0.264583" /><path
       class="cls-5"
       d="m 19.448019,417.79169 c 1.553104,0 3.00302,0.8943 3.00302,2.71198 0,1.81769 -1.4605,2.71198 -3.00302,2.71198 -1.542521,0 -3.000375,-0.89693 -3.000375,-2.71198 0,-1.81504 1.447271,-2.71198 3.000375,-2.71198 z m -3.003021,17.71121 v -11.19452 a 0.3730625,0.3730625 0 0 1 0.373062,-0.37041 h 5.262563 a 0.37041666,0.37041666 0 0 1 0.370416,0.37041 v 13.82448 a 0.3730625,0.3730625 0 0 1 -0.370416,0.37306 h -2.632604 a 3.0030208,3.0030208 0 0 1 -3.003021,-3.00302 z"
       id="path38886"
       style="stroke-width:0.264583" /><path
       class="cls-5"
       d="m 110.27418,419.30511 -0.41804,1.28852 a 2.3230416,2.3230416 0 0 1 -1.95262,1.5875 l -5.20965,0.57944 a 0.23283333,0.23283333 0 0 1 -0.23283,-0.12171 l -0.37042,-0.68262 a 0.23547916,0.23547916 0 0 1 0.127,-0.32809 l 7.75494,-2.61143 a 0.23547916,0.23547916 0 0 1 0.30162,0.28839 z"
       id="path38888"
       style="stroke-width:0.264583" /><path
       class="cls-6"
       d="m 15.825873,447.47794 h -1.084792 l 1.201209,-3.34433 h 1.397 l 1.201208,3.34433 h -1.082146 l -0.164042,-0.50006 h -1.309687 z m 0.915458,-2.16958 c -0.05027,-0.13758 -0.07673,-0.26458 -0.103187,-0.35189 -0.02381,0.0979 -0.05556,0.21431 -0.100542,0.35189 l -0.264583,0.79375 h 0.732896 z"
       id="path38890"
       style="stroke-width:0.264583" /><path
       class="cls-6"
       d="m 20.649227,444.13361 c 1.195917,0 1.867958,0.60325 1.867958,1.67217 0,1.06891 -0.672041,1.67216 -1.867958,1.67216 h -1.304396 v -3.34433 z m 0,2.47386 c 0.529167,0 0.833437,-0.28575 0.833437,-0.79375 a 0.74347916,0.74347916 0 0 0 -0.833437,-0.79375 h -0.280458 v 1.60602 z"
       id="path38892"
       style="stroke-width:0.264583" /><path
       class="cls-6"
       d="m 26.454185,445.91161 v -0.16404 l -0.701146,1.73037 h -0.582083 l -0.679979,-1.73037 v 0.13494 l -0.03704,1.5875 h -1.016 l 0.137584,-3.34434 h 1.135062 l 0.669396,1.61396 a 1.87325,1.87325 0 0 1 0.08731,0.26459 2.7172708,2.7172708 0 0 1 0.08202,-0.26459 l 0.674688,-1.61396 h 1.140354 l 0.134937,3.34434 h -1.023937 z"
       id="path38894"
       style="stroke-width:0.264583" /><path
       class="cls-6"
       d="m 28.525873,447.47794 v -3.34433 h 1.023937 v 3.34433 z"
       id="path38896"
       style="stroke-width:0.264583" /><path
       class="cls-6"
       d="m 32.870331,447.47794 -1.262062,-1.69333 v 0.29104 1.40229 h -1.023938 v -3.34433 h 0.926042 l 1.259416,1.69598 v -0.26458 -1.42082 h 1.026584 v 3.33375 z"
       id="path38898"
       style="stroke-width:0.264583" /><path
       class="cls-6"
       d="m 34.830893,447.47794 v -3.34433 h 1.023938 v 3.34433 z"
       id="path38900"
       style="stroke-width:0.264583" /><path
       class="cls-6"
       d="m 39.400248,445.1258 a 4.3550416,4.3550416 0 0 0 -1.2065,-0.23548 c -0.15875,0 -0.214313,0.0609 -0.214313,0.15346 0,0.15875 0.203729,0.16404 0.756708,0.35719 0.500063,0.17462 0.915459,0.36247 0.915459,1.00806 0,0.72496 -0.515938,1.11919 -1.309688,1.11919 a 3.413125,3.413125 0 0 1 -1.5875,-0.4445 l 0.338667,-0.77788 a 3.0427083,3.0427083 0 0 0 1.2065,0.37835 c 0.187854,0 0.251354,-0.0661 0.251354,-0.17197 0,-0.10584 -0.169333,-0.16934 -0.732896,-0.34925 -0.635,-0.20903 -0.931333,-0.4498 -0.931333,-1.02659 0,-0.69056 0.486833,-1.05833 1.27,-1.05833 a 4.0004999,4.0004999 0 0 1 1.476375,0.26458 z"
       id="path38902"
       style="stroke-width:0.264583" /><path
       class="cls-6"
       d="m 42.421789,445.05965 v 2.41829 h -1.018646 v -2.41829 h -0.992187 v -0.92604 h 3.003021 v 0.92604 z"
       id="path38904"
       style="stroke-width:0.264583" /><path
       class="cls-6"
       d="m 45.731727,444.13361 c 0.965729,0 1.508125,0.45508 1.508125,1.26736 a 1.1350625,1.1350625 0 0 1 -0.547688,1.05833 l 0.661458,0.94721 v 0.0767 h -1.090083 l -0.529166,-0.83873 h -0.402167 v 0.83873 h -1.026583 v -3.34963 z m 0.06615,1.68804 a 0.38629166,0.38629166 0 0 0 0.433916,-0.42068 c 0,-0.26459 -0.177271,-0.41011 -0.489479,-0.41011 H 45.33221 v 0.83079 z"
       id="path38906"
       style="stroke-width:0.264583" /><path
       class="cls-6"
       d="m 49.020497,447.47794 h -1.084791 l 1.201208,-3.34433 h 1.397 l 1.201208,3.34433 h -1.0795 l -0.164041,-0.50006 h -1.322917 z m 0.915459,-2.16958 c -0.04762,-0.13758 -0.07673,-0.26458 -0.103188,-0.35189 -0.02117,0.0979 -0.05556,0.21431 -0.0979,0.35189 l -0.264583,0.79375 h 0.735542 z"
       id="path38908"
       style="stroke-width:0.264583" /><path
       class="cls-6"
       d="m 55.547768,447.14986 a 2.9262916,2.9262916 0 0 1 -1.434041,0.37836 c -1.031875,0 -1.68275,-0.61384 -1.68275,-1.71186 0,-1.09802 0.650875,-1.73567 1.738312,-1.73567 a 2.8442708,2.8442708 0 0 1 1.264708,0.30163 l -0.312208,0.77258 a 3.5930416,3.5930416 0 0 0 -0.92075,-0.15875 c -0.481542,0 -0.746125,0.26459 -0.746125,0.82021 0,0.50006 0.264583,0.79375 0.695854,0.79375 a 2.7066875,2.7066875 0 0 0 1.058334,-0.22489 z"
       id="path38910"
       style="stroke-width:0.264583" /><path
       class="cls-6"
       d="m 56.37856,447.47794 v -3.34433 h 1.023937 v 3.34433 z"
       id="path38912"
       style="stroke-width:0.264583" /><path
       class="cls-6"
       d="m 61.783997,445.81636 c 0,1.09802 -0.650875,1.71186 -1.725083,1.71186 -1.074208,0 -1.727729,-0.61384 -1.727729,-1.71186 0,-1.09802 0.653521,-1.73567 1.727729,-1.73567 1.074208,0 1.725083,0.62442 1.725083,1.73567 z m -1.034521,0 c 0,-0.55298 -0.264583,-0.82021 -0.690562,-0.82021 -0.425979,0 -0.690562,0.26459 -0.690562,0.82021 0,0.55563 0.264583,0.79375 0.690562,0.79375 0.425979,0 0.690562,-0.26194 0.690562,-0.79375 z m 0.06615,-2.34421 a 4.3100624,4.3100624 0 0 1 -1.108604,0.51594 l -0.240771,-0.26458 0.629709,-0.83873 0.719666,0.38894 z"
       id="path38914"
       style="stroke-width:0.264583" /><path
       class="cls-6"
       d="m 64.996039,447.47794 -1.259417,-1.69333 v 0.29104 1.40229 h -1.023937 v -3.34433 h 0.926041 l 1.259417,1.69598 v -0.26458 -1.42082 h 1.023938 v 3.33375 z"
       id="path38916"
       style="stroke-width:0.264583" /><path
       class="cls-6"
       d="m 68.387997,447.47794 v -0.71437 c 0.910167,-0.72496 1.5875,-1.19592 1.5875,-1.50813 0,-0.2196 -0.153458,-0.32279 -0.362479,-0.32279 a 2.9950833,2.9950833 0 0 0 -1.058333,0.27782 l -0.264584,-0.71173 a 3.6856458,3.6856458 0 0 1 1.50548,-0.4154 c 0.746125,0 1.230312,0.46038 1.230312,1.15094 0,0.57944 -0.529167,0.97366 -1.277937,1.42346 0.219604,-0.0159 0.439208,-0.0317 0.635,-0.0317 h 0.664104 v 0.8546 z"
       id="path38918"
       style="stroke-width:0.264583" /><path
       class="cls-6"
       d="m 74.994643,445.81636 c 0,1.09802 -0.500063,1.71186 -1.563688,1.71186 -1.063624,0 -1.561041,-0.61384 -1.561041,-1.71186 0,-1.09802 0.502708,-1.73567 1.561041,-1.73567 1.058334,0 1.563688,0.62442 1.563688,1.73567 z m -1.037167,0 c 0,-0.55298 -0.103187,-0.82021 -0.529166,-0.82021 -0.425979,0 -0.529167,0.26459 -0.529167,0.82021 0,0.55563 0.111125,0.79375 0.529167,0.79375 0.418041,0 0.529166,-0.26194 0.529166,-0.79375 z"
       id="path38920"
       style="stroke-width:0.264583" /><path
       class="cls-6"
       d="m 75.812205,447.47794 v -0.71437 c 0.907521,-0.72496 1.5875,-1.19592 1.5875,-1.50813 0,-0.2196 -0.153458,-0.32279 -0.359833,-0.32279 a 2.9818541,2.9818541 0 0 0 -1.058333,0.27782 l -0.264584,-0.71173 a 3.7041666,3.7041666 0 0 1 1.508125,-0.4154 c 0.746125,0 1.227667,0.46038 1.227667,1.15094 0,0.57944 -0.529167,0.97366 -1.277937,1.42346 0.219604,-0.0159 0.439208,-0.0317 0.637645,-0.0317 h 0.661459 v 0.8546 z"
       id="path38922"
       style="stroke-width:0.264583" /><path
       class="cls-6"
       d="m 79.286185,447.47794 v -0.71437 c 0.910166,-0.72496 1.5875,-1.19592 1.5875,-1.50813 0,-0.2196 -0.153459,-0.32279 -0.36248,-0.32279 a 2.9845,2.9845 0 0 0 -1.058333,0.27782 l -0.264583,-0.71173 a 3.7041666,3.7041666 0 0 1 1.508125,-0.4154 c 0.746125,0 1.227666,0.46038 1.227666,1.15094 0,0.57944 -0.542395,0.97366 -1.277937,1.42346 0.219604,-0.0159 0.439208,-0.0317 0.637646,-0.0317 h 0.661458 v 0.8546 z"
       id="path38924"
       style="stroke-width:0.264583" /><path
       class="cls-6"
       d="m 86.120372,446.40903 h -1.672167 v -0.87842 h 1.672167 z"
       id="path38926"
       style="stroke-width:0.264583" /><path
       class="cls-6"
       d="m 88.615393,447.47794 v -0.71437 c 0.910166,-0.72496 1.5875,-1.19592 1.5875,-1.50813 0,-0.2196 -0.153459,-0.32279 -0.362479,-0.32279 a 2.9950833,2.9950833 0 0 0 -1.058334,0.27782 l -0.264583,-0.71173 a 3.6856458,3.6856458 0 0 1 1.505479,-0.4154 c 0.746125,0 1.227667,0.46038 1.227667,1.15094 0,0.57944 -0.542396,0.97366 -1.275292,1.42346 0.219604,-0.0159 0.436563,-0.0317 0.635,-0.0317 h 0.664104 v 0.8546 z"
       id="path38928"
       style="stroke-width:0.264583" /><path
       class="cls-6"
       d="m 95.219393,445.81636 c 0,1.09802 -0.497417,1.71186 -1.561042,1.71186 -1.063625,0 -1.561042,-0.61384 -1.561042,-1.71186 0,-1.09802 0.502709,-1.73567 1.561042,-1.73567 1.058333,0 1.561042,0.62442 1.561042,1.73567 z m -1.034521,0 c 0,-0.55298 -0.103188,-0.82021 -0.529167,-0.82021 -0.425979,0 -0.529166,0.26459 -0.529166,0.82021 0,0.55563 0.111125,0.79375 0.529166,0.79375 0.418042,0 0.529167,-0.26194 0.529167,-0.79375 z"
       id="path38930"
       style="stroke-width:0.264583" /><path
       class="cls-6"
       d="m 96.039601,447.47794 v -0.71437 c 0.907521,-0.72496 1.5875,-1.19592 1.5875,-1.50813 0,-0.2196 -0.153458,-0.32279 -0.359833,-0.32279 a 2.9818541,2.9818541 0 0 0 -1.058334,0.27782 l -0.264583,-0.71173 a 3.7041666,3.7041666 0 0 1 1.508125,-0.4154 c 0.746125,0 1.227667,0.46038 1.227667,1.15094 0,0.57944 -0.529167,0.97366 -1.277938,1.42346 0.219604,-0.0159 0.439209,-0.0317 0.637646,-0.0317 h 0.661458 v 0.8546 z"
       id="path38932"
       style="stroke-width:0.264583" /><path
       class="cls-6"
       d="m 100.56662,445.51474 a 1.397,1.397 0 0 1 0.72496,-0.20109 0.94985415,0.94985415 0 0 1 1.05833,1.03452 c 0,0.77259 -0.61912,1.18005 -1.35995,1.18005 a 3.3443333,3.3443333 0 0 1 -1.545171,-0.36778 l 0.264583,-0.73554 a 2.7701875,2.7701875 0 0 0 1.129768,0.26459 c 0.28311,0 0.52917,-0.14817 0.52917,-0.38894 0,-0.19844 -0.15081,-0.34131 -0.4101,-0.34131 a 0.67468749,0.67468749 0 0 0 -0.47096,0.2196 l -0.822857,-0.12171 0.116416,-1.92352 h 2.415651 v 0.84402 h -1.5875 z"
       id="path38934"
       style="stroke-width:0.264583" /></g></svg>
