<?xml version="1.0" encoding="UTF-8" standalone="no"?>
<!-- Created with Inkscape (http://www.inkscape.org/) -->

<svg
   width="49.629456mm"
   height="57.142456mm"
   viewBox="0 0 49.629456 57.142456"
   version="1.1"
   id="svg5"
   xml:space="preserve"
   xmlns:inkscape="http://www.inkscape.org/namespaces/inkscape"
   xmlns:sodipodi="http://sodipodi.sourceforge.net/DTD/sodipodi-0.dtd"
   xmlns:xlink="http://www.w3.org/1999/xlink"
   xmlns="http://www.w3.org/2000/svg"
   xmlns:svg="http://www.w3.org/2000/svg"><sodipodi:namedview
     id="namedview7"
     pagecolor="#ffffff"
     bordercolor="#000000"
     borderopacity="0.25"
     inkscape:showpageshadow="2"
     inkscape:pageopacity="0.0"
     inkscape:pagecheckerboard="0"
     inkscape:deskcolor="#d1d1d1"
     inkscape:document-units="mm"
     showgrid="false"
     showguides="true" /><defs
     id="defs2"><style
       id="style38692">.cls-1{fill:#fff;}.cls-2{fill:url(#GradientFill_1);}.cls-3{fill:url(#GradientFill_1-2);}.cls-4{fill:#0f1010;}.cls-5{fill:#861642;}.cls-6{fill:#bc955b;}</style><linearGradient
       id="GradientFill_1"
       x1="-11.03"
       y1="150.81"
       x2="210"
       y2="128.37"
       gradientUnits="userSpaceOnUse"><stop
         offset="0"
         stop-color="#fcde71"
         id="stop38694" /><stop
         offset="0.13"
         stop-color="#b57d18"
         id="stop38696" /><stop
         offset="0.26"
         stop-color="#fcde71"
         id="stop38698" /><stop
         offset="0.5"
         stop-color="#b57d18"
         id="stop38700" /><stop
         offset="0.67"
         stop-color="#b57d18"
         id="stop38702" /><stop
         offset="0.82"
         stop-color="#fcde71"
         id="stop38704" /><stop
         offset="1"
         stop-color="#b57d18"
         id="stop38706" /></linearGradient><linearGradient
       inkscape:collect="always"
       xlink:href="#GradientFill_1"
       id="linearGradient39309"
       gradientTransform="matrix(0.26458333,0,0,0.26458333,138.96777,534.6392)"
       x1="-12.02"
       y1="141.05"
       x2="209.00999"
       y2="118.6" /><linearGradient
       inkscape:collect="always"
       xlink:href="#GradientFill_1"
       id="linearGradient39311"
       gradientUnits="userSpaceOnUse"
       gradientTransform="matrix(0.26458333,0,0,0.26458333,138.96777,534.6392)"
       x1="-11.03"
       y1="150.81"
       x2="210"
       y2="128.37" /></defs><g
     inkscape:label="Capa 1"
     inkscape:groupmode="layer"
     id="layer1"
     transform="translate(-139.65253,-535.3347)"><path
       class="cls-1"
       d="m 184.74069,536.88551 c -3.70417,-2.03464 -6.97706,-2.06639 -9.9695,-0.0926 -2.38125,1.57162 -4.60375,4.37091 -7.18344,9.06991 l -3.10091,5.64886 -3.10092,-5.64886 c -2.5744,-4.699 -4.79425,-7.49829 -7.18079,-9.06991 -2.99508,-1.97379 -6.24152,-1.94469 -9.96421,0.0926 l -0.0926,0.0529 v 16.78252 c 0,5.25992 2.22779,9.6811 6.40821,12.78996 3.70416,2.75431 8.69685,4.27037 14.02291,4.27037 5.32607,0 10.24467,-1.50548 13.90386,-4.23333 4.14602,-3.09827 6.35,-7.53004 6.35,-12.81906 v -16.79046 z"
       id="path39201"
       style="stroke-width:0.264583" /><path
       class="cls-2"
       d="m 189.02694,557.59445 c 0,-0.55827 0.082,-2.16165 -0.20108,-2.32569 -0.64559,-0.37306 -2.04523,0.51329 -1.99761,2.64584 0.0741,3.40254 -0.6641,5.23345 -0.6641,5.23345 0,0 1.09273,0.0503 0.97631,1.11919 -0.11642,1.06892 -1.27529,2.20398 -2.64583,4.26508 -0.31486,0.47361 -0.5715,0.97103 -0.91281,1.27265 -1.13771,1.00277 -2.42359,1.85208 -2.93688,1.83621 0.50535,-0.13494 2.1934,-1.5875 2.57175,-2.02406 0.37835,-0.43657 3.1459,-4.68048 3.1459,-4.68048 0,0 0.75935,-1.90765 -1.47638,-1.23296 -1.55046,0.46831 -4.20952,3.80471 -6.1886,5.24933 -1.25677,0.91811 -3.07182,0.93927 -5.11704,1.64836 -6.83419,2.35214 -10.68123,6.9215 -7.44273,14.90398 4.67783,-8.8609 10.26054,-4.67255 17.66093,-10.62567 2.66436,-2.14313 4.34975,-7.14375 5.15938,-9.22073 0.65087,-1.62983 0.12964,-5.64356 0.0688,-8.0645 z"
       id="path39203"
       style="fill:url(#linearGradient39311);stroke-width:0.264583" /><path
       class="cls-3"
       d="m 145.13786,574.89291 c 7.40833,5.95312 12.9831,1.76477 17.66094,10.62566 3.24379,-7.98247 -0.60855,-12.55183 -7.44273,-14.90397 -2.03994,-0.70909 -3.85498,-0.73025 -5.1144,-1.64836 -1.97908,-1.44462 -4.63815,-4.78102 -6.19125,-5.24933 -2.23308,-0.67469 -1.47637,1.23296 -1.47637,1.23296 0,0 2.76754,4.24656 3.14589,4.68048 0.37836,0.43391 2.0664,1.88912 2.57175,2.02406 -0.51329,0.0291 -1.79917,-0.83344 -2.93687,-1.83621 -0.34132,-0.30163 -0.59796,-0.79375 -0.91282,-1.27265 -1.3626,-2.0611 -2.52148,-3.19087 -2.64583,-4.26508 -0.12435,-1.07421 0.97631,-1.11919 0.97631,-1.11919 0,0 -0.74083,-1.83091 -0.6641,-5.23346 0.0476,-2.14577 -1.35202,-3.03212 -1.99761,-2.64583 -0.28839,0.16404 -0.18785,1.76742 -0.20108,2.32569 -0.0635,2.42094 -0.57944,6.43467 0.0582,8.07773 0.82021,2.07433 2.50561,7.05379 5.16996,9.2075 z"
       id="path39205"
       style="fill:url(#linearGradient39309);stroke-width:0.264583" /><path
       class="cls-4"
       d="m 143.85992,583.25903 c -0.60325,0.35454 -1.27265,0.74613 -1.87854,1.11125 l 1.13242,-1.86796 -0.70644,-0.71437 -2.11667,1.9394 0.45244,0.46037 1.51342,-1.39435 -1.05834,1.8071 0.52917,0.5424 c 0.57944,-0.33867 1.21708,-0.69586 1.80446,-1.05834 l -1.41288,1.50813 0.46038,0.46566 1.9685,-2.11666 z"
       id="path39207"
       style="fill:#ffffff;stroke-width:0.264583" /><path
       class="cls-4"
       d="m 144.90238,587.13782 a 1.2964583,1.2964583 0 0 1 -0.15611,-0.1217 0.1825625,0.1825625 0 0 1 -0.0476,-0.0423 l 1.12448,-1.66952 0.23019,0.127 0.23283,-0.34396 -0.96837,-0.65087 -0.23283,0.34396 0.16404,0.12964 a 0.10583333,0.10583333 0 0 0 0.0344,0.037 l -1.12448,1.66423 -0.22754,-0.1217 -0.2249,0.33602 0.96308,0.65087 z"
       id="path39209"
       style="fill:#ffffff;stroke-width:0.264583" /><polygon
       class="cls-4"
       points="30.9,196.26 30.59,204.69 33.38,206.1 38.3,196.38 36.12,195.28 32.93,202.22 33.2,193.81 30.46,192.42 25.55,202.15 27.73,203.25 "
       id="polygon39211"
       transform="matrix(0.26458333,0,0,0.26458333,138.96777,534.6392)"
       style="fill:#ffffff" /><path
       class="cls-4"
       d="m 148.77588,589.6011 0.63235,0.22754 c 0.1614,-0.19844 0.36513,-0.43127 0.52917,-0.635 l 0.90487,0.32543 v 0.8308 l 0.64823,0.23548 -0.0423,-3.0824 -0.69321,-0.24871 z m 2.09814,-0.62178 -0.58208,-0.21166 0.61913,-0.79375 z"
       id="path39213"
       style="fill:#ffffff;stroke-width:0.264583" /><polygon
       class="cls-4"
       points="52.14,201.46 51.63,203.33 54.18,204.02 51.85,212.66 54.28,213.32 56.62,204.67 59.42,205.43 59.93,203.56 "
       id="polygon39215"
       transform="matrix(0.26458333,0,0,0.26458333,138.96777,534.6392)"
       style="fill:#ffffff" /><path
       class="cls-4"
       d="m 155.90111,591.2177 0.39952,-1.97379 0.26458,0.0317 0.082,-0.40746 -1.14035,-0.23283 -0.082,0.4101 0.20108,0.0556 a 0.10054167,0.10054167 0 0 0 0.045,0.0212 l -0.39952,1.96585 -0.26458,-0.0238 -0.082,0.39688 1.143,0.23018 0.0794,-0.40216 a 1.3678958,1.3678958 0 0 1 -0.1905,-0.0503 0.26458333,0.26458333 0 0 1 -0.0556,-0.0212 z"
       id="path39217"
       style="fill:#ffffff;stroke-width:0.264583" /><polygon
       class="cls-4"
       points="70.48,216.61 72.98,216.96 74.24,208.1 77.11,208.5 77.38,206.59 69.4,205.45 69.13,207.37 71.74,207.74 "
       id="polygon39219"
       transform="matrix(0.26458333,0,0,0.26458333,138.96777,534.6392)"
       style="fill:#ffffff" /><path
       class="cls-4"
       d="m 160.69007,591.7892 0.1905,-2.3495 -0.64294,-0.0529 -0.23283,2.87073 1.5875,0.12965 0.0423,-0.5424 -0.55298,-0.0291 z"
       id="path39221"
       style="fill:#ffffff;stroke-width:0.264583" /><path
       class="cls-4"
       d="m 164.13759,589.57728 h -0.73819 l -1.12713,2.86279 h 0.67205 c 0.09,-0.23812 0.20637,-0.52916 0.30162,-0.77258 l 0.96044,0.0159 0.26458,0.79375 h 0.68792 z m -0.71173,1.5875 0.32544,-0.96308 0.29368,0.97102 z"
       id="path39223"
       style="fill:#ffffff;stroke-width:0.264583" /><polygon
       class="cls-4"
       points="96.14,203.72 93.87,203.68 92.81,206.36 94.59,206.39 "
       id="polygon39225"
       transform="matrix(0.26458333,0,0,0.26458333,138.96777,534.6392)"
       style="fill:#ffffff" /><polygon
       class="cls-4"
       points="107.9,218.21 111.02,218.04 110.44,207.15 108,207.28 108.69,214.89 104.74,207.46 101.67,207.62 102.26,218.51 104.69,218.38 103.96,210.73 "
       id="polygon39227"
       transform="matrix(0.26458333,0,0,0.26458333,138.96777,534.6392)"
       style="fill:#ffffff" /><polygon
       class="cls-4"
       points="124.96,207.23 129.13,206.5 128.8,204.61 122.24,205.76 124.13,216.49 130.74,215.32 130.41,213.42 126.18,214.16 125.7,211.44 129.47,210.78 129.14,208.87 125.36,209.53 "
       id="polygon39229"
       transform="matrix(0.26458333,0,0,0.26458333,138.96777,534.6392)"
       style="fill:#ffffff" /><path
       class="cls-4"
       d="m 176.14438,588.91847 c -0.13229,-0.52917 -0.57679,-0.77258 -1.20915,-0.61383 -0.46566,0.11906 -0.97631,0.28046 -0.97631,0.28046 l 0.70644,2.79135 0.64823,-0.16404 -0.27782,-1.09802 0.12436,-0.0317 0.92075,0.93662 0.762,-0.19314 c -0.33073,-0.29634 -0.74613,-0.67734 -1.07686,-0.98955 a 0.84931249,0.84931249 0 0 0 0.37836,-0.9181 z m -0.98161,0.70115 -0.26458,0.0661 -0.21167,-0.80698 0.26459,-0.0661 c 0.34131,-0.0873 0.48418,0.037 0.54768,0.29104 a 0.40745833,0.40745833 0 0 1 -0.33602,0.51594 z"
       id="path39231"
       style="fill:#ffffff;stroke-width:0.264583" /><polygon
       class="cls-4"
       points="145.98,201.99 149.99,200.61 149.36,198.8 143.07,200.96 146.61,211.27 152.96,209.09 152.33,207.25 148.27,208.65 147.37,206.04 151,204.79 150.37,202.96 146.74,204.2 "
       id="polygon39233"
       transform="matrix(0.26458333,0,0,0.26458333,138.96777,534.6392)"
       style="fill:#ffffff" /><path
       class="cls-4"
       d="m 181.72179,588.0136 c -0.2196,-0.49213 -0.67468,-0.47625 -1.0742,-0.47096 -0.26459,0 -0.52917,0 -0.59796,-0.1614 -0.0688,-0.16139 0.0238,-0.29898 0.28839,-0.41539 a 3.8179375,3.8179375 0 0 1 0.56621,-0.18257 c -0.0318,-0.0979 -0.11377,-0.37041 -0.13758,-0.48154 l -0.0873,0.0318 a 2.4077083,2.4077083 0 0 0 -0.57944,0.17727 c -0.49212,0.21961 -0.85989,0.58738 -0.58208,1.21179 0.20902,0.46832 0.65881,0.46832 1.05833,0.46567 0.26458,0 0.52917,0 0.6059,0.16669 0.10583,0.24077 -0.18257,0.41539 -0.35984,0.49477 a 3.4395833,3.4395833 0 0 1 -0.65352,0.1561 l 0.2249,0.49213 a 1.9711458,1.9711458 0 0 0 0.70114,-0.17198 c 0.56092,-0.254 0.8943,-0.71173 0.62707,-1.31233 z"
       id="path39235"
       style="fill:#ffffff;stroke-width:0.264583" /><polygon
       class="cls-4"
       points="167.06,190.1 168.21,191.66 170.34,190.09 175.64,197.3 177.67,195.81 172.37,188.6 174.71,186.88 173.56,185.32 "
       id="polygon39237"
       transform="matrix(0.26458333,0,0,0.26458333,138.96777,534.6392)"
       style="fill:#ffffff" /><path
       class="cls-4"
       d="m 186.87059,581.57893 -0.42598,0.4736 1.397,1.25148 a 0.51064583,0.51064583 0 1 1 -0.67998,0.75936 l -1.397,-1.25148 -0.42863,0.47625 1.397,1.25148 c 0.56621,0.508 1.11919,0.37835 1.57163,-0.127 0.45244,-0.50536 0.52916,-1.07686 -0.037,-1.5875 z"
       id="path39239"
       style="fill:#ffffff;stroke-width:0.264583" /><polygon
       class="cls-4"
       points="175.63,177.88 176.97,180.44 178.16,179.11 177.16,176.18 "
       id="polygon39241"
       transform="matrix(0.26458333,0,0,0.26458333,138.96777,534.6392)"
       style="fill:#ffffff" /><rect
       class="cls-5"
       x="166.38126"
       y="568.90009"
       width="2.7463751"
       height="0.98954165"
       id="rect39243"
       style="stroke-width:0.264583" /><rect
       class="cls-5"
       x="162.96812"
       y="568.90009"
       width="2.7463751"
       height="0.98954165"
       id="rect39245"
       style="stroke-width:0.264583" /><polygon
       class="cls-5"
       points="81.35,113.64 72.7,118.12 82.81,123.36 "
       id="polygon39247"
       transform="matrix(0.26458333,0,0,0.26458333,138.96777,534.6392)" /><polygon
       class="cls-5"
       points="79.51,101.43 72.53,105.5 80.85,110.34 "
       id="polygon39249"
       transform="matrix(0.26458333,0,0,0.26458333,138.96777,534.6392)" /><polygon
       class="cls-5"
       points="81.46,125.83 61.05,125.83 71.25,130.3 "
       id="polygon39251"
       transform="matrix(0.26458333,0,0,0.26458333,138.96777,534.6392)" /><polygon
       class="cls-5"
       points="77.82,90.23 72.44,93.78 79,98.1 "
       id="polygon39253"
       transform="matrix(0.26458333,0,0,0.26458333,138.96777,534.6392)" /><polygon
       class="cls-5"
       points="59.38,123.39 69.54,118.12 60.85,113.62 "
       id="polygon39255"
       transform="matrix(0.26458333,0,0,0.26458333,138.96777,534.6392)" /><polygon
       class="cls-5"
       points="61.35,110.32 69.63,105.5 62.69,101.45 "
       id="polygon39257"
       transform="matrix(0.26458333,0,0,0.26458333,138.96777,534.6392)" /><polygon
       class="cls-5"
       points="64.72,87.97 77.47,87.97 76.1,78.87 66.09,78.87 "
       id="polygon39259"
       transform="matrix(0.26458333,0,0,0.26458333,138.96777,534.6392)" /><polygon
       class="cls-5"
       points="63.19,98.13 69.79,93.78 64.38,90.21 "
       id="polygon39261"
       transform="matrix(0.26458333,0,0,0.26458333,138.96777,534.6392)" /><polygon
       class="cls-5"
       points="71.12,92.9 76.39,89.42 65.84,89.42 "
       id="polygon39263"
       transform="matrix(0.26458333,0,0,0.26458333,138.96777,534.6392)" /><polygon
       class="cls-5"
       points="81.61,124.37 71.12,118.94 60.64,124.37 "
       id="polygon39265"
       transform="matrix(0.26458333,0,0,0.26458333,138.96777,534.6392)" /><path
       class="cls-5"
       d="m 150.12261,555.34285 a 0.88370832,0.88370832 0 0 1 0.88106,-0.69057 h 0.61648 v -0.39952 a 0.87841666,0.87841666 0 0 0 -0.89694,-0.8546 h -1.05833 a 0.87841666,0.87841666 0 0 0 -0.90752,0.8546 v 3.2729 h 0.39687 a 0.61647916,0.61647916 0 0 1 0.10054,0 v -1.08744 a 1.1535833,1.1535833 0 0 1 0.86784,-1.09537 z"
       id="path39267"
       style="stroke-width:0.264583" /><polygon
       class="cls-5"
       points="32.5,87.4 32.51,87.41 "
       id="polygon39269"
       transform="matrix(0.26458333,0,0,0.26458333,138.96777,534.6392)" /><polygon
       class="cls-5"
       points="63.95,99.38 78.28,99.38 71.12,94.65 "
       id="polygon39271"
       transform="matrix(0.26458333,0,0,0.26458333,138.96777,534.6392)" /><polygon
       class="cls-5"
       points="62.6,112.9 71.12,117.31 79.64,112.9 "
       id="polygon39273"
       transform="matrix(0.26458333,0,0,0.26458333,138.96777,534.6392)" /><polygon
       class="cls-5"
       points="71.08,104.65 77.64,100.83 64.52,100.83 "
       id="polygon39275"
       transform="matrix(0.26458333,0,0,0.26458333,138.96777,534.6392)" /><polygon
       class="cls-5"
       points="62.32,111.44 79.84,111.44 71.08,106.34 "
       id="polygon39277"
       transform="matrix(0.26458333,0,0,0.26458333,138.96777,534.6392)" /><polygon
       class="cls-5"
       points="98.14,106.53 100.72,104.85 95.57,104.85 "
       id="polygon39279"
       transform="matrix(0.26458333,0,0,0.26458333,138.96777,534.6392)" /><polygon
       class="cls-5"
       points="101.42,105.24 98.79,106.95 102,109.04 "
       id="polygon39281"
       transform="matrix(0.26458333,0,0,0.26458333,138.96777,534.6392)" /><polygon
       class="cls-5"
       points="94.92,110.36 98.13,112.2 101.33,110.36 "
       id="polygon39283"
       transform="matrix(0.26458333,0,0,0.26458333,138.96777,534.6392)" /><polygon
       class="cls-5"
       points="94.64,109.65 101.64,109.65 98.14,107.37 "
       id="polygon39285"
       transform="matrix(0.26458333,0,0,0.26458333,138.96777,534.6392)" /><polygon
       class="cls-5"
       points="95.02,104.14 101.25,104.14 100.58,99.75 95.69,99.75 "
       id="polygon39287"
       transform="matrix(0.26458333,0,0,0.26458333,138.96777,534.6392)" /><polygon
       class="cls-5"
       points="102.9,114.95 102.24,110.65 98.83,112.61 "
       id="polygon39289"
       transform="matrix(0.26458333,0,0,0.26458333,138.96777,534.6392)" /><polygon
       class="cls-5"
       points="94.28,109.05 97.5,106.95 94.86,105.23 "
       id="polygon39291"
       transform="matrix(0.26458333,0,0,0.26458333,138.96777,534.6392)" /><polygon
       class="cls-5"
       points="102.4,115.48 98.13,113.02 93.85,115.48 "
       id="polygon39293"
       transform="matrix(0.26458333,0,0,0.26458333,138.96777,534.6392)" /><rect
       class="cls-5"
       x="166.38126"
       y="567.31525"
       width="2.7463751"
       height="0.9868958"
       id="rect39295"
       style="stroke-width:0.264583" /><polygon
       class="cls-5"
       points="93.38,114.94 97.42,112.61 94.03,110.66 "
       id="polygon39297"
       transform="matrix(0.26458333,0,0,0.26458333,138.96777,534.6392)" /><path
       class="cls-5"
       d="m 178.72142,555.07032 v 1.93411 a 3.1882291,3.1882291 0 0 1 1.6219,-1.43669 l 0.0661,-3.06387 a 2.8045833,2.8045833 0 0 0 -1.68805,2.56645 z"
       id="path39299"
       style="stroke-width:0.264583" /><path
       class="cls-5"
       d="m 178.72142,550.08028 v 3.46869 a 3.1935208,3.1935208 0 0 1 1.69598,-1.46579 l 0.09,-4.61433 a 2.8019375,2.8019375 0 0 0 -1.78594,2.61143 z"
       id="path39301"
       style="stroke-width:0.264583" /><rect
       class="cls-5"
       x="162.96812"
       y="567.31525"
       width="2.7463751"
       height="0.9868958"
       id="rect39303"
       style="stroke-width:0.264583" /><rect
       class="cls-5"
       x="169.79703"
       y="567.31525"
       width="2.7463751"
       height="0.9868958"
       id="rect39305"
       style="stroke-width:0.264583" /><path
       class="cls-5"
       d="m 184.74069,536.88551 c -3.70417,-2.03464 -6.97706,-2.06639 -9.9695,-0.0926 -2.38125,1.57162 -4.60375,4.37091 -7.18344,9.06991 l -3.10091,5.64886 -3.10092,-5.64886 c -2.5744,-4.699 -4.79425,-7.49829 -7.18079,-9.06991 -2.99508,-1.97379 -6.24152,-1.94469 -9.96421,0.0926 l -0.0926,0.0529 v 16.78252 c 0,5.25992 2.22779,9.6811 6.40821,12.78996 3.70416,2.75431 8.69685,4.27037 14.02291,4.27037 5.32607,0 10.24467,-1.50548 13.90386,-4.23333 4.14602,-3.09827 6.35,-7.53004 6.35,-12.81906 v -16.79046 z m -27.97704,14.38275 c 0.24871,-0.91281 1.62983,-2.05316 1.15358,-2.66964 0.58738,0.29368 1.02923,1.01335 0.92604,1.95527 -0.10318,0.94191 -0.8255,1.10596 -0.71966,2.13783 -0.63765,-0.75935 0.0714,-1.73567 0.14816,-2.19604 -0.3466,0.34131 -0.97102,0.77787 -0.85195,1.6166 0.10318,0.71702 0.74348,1.05834 0.52916,1.85209 -0.0609,-0.0873 -0.0847,-0.23813 -0.14287,-0.34396 -0.38365,-0.64823 -1.36261,-1.16946 -1.04246,-2.35215 z m -9.78958,10.86115 c -0.26459,-0.42069 -0.5133,-0.85196 -0.73555,-1.28852 h 0.73555 z m 0,-1.57163 h -0.88636 c -0.0979,-0.19843 -0.18785,-0.39952 -0.26458,-0.6006 h 1.15358 z m 14.351,9.68111 -0.3175,-2.11667 -2.72521,1.19856 1.69069,0.74084 c -0.59532,-0.0952 -1.16946,-0.21167 -1.72773,-0.34132 l -0.43657,-0.1905 -0.127,0.0556 c -0.19579,-0.0503 -0.38364,-0.10848 -0.57414,-0.16405 l 0.22754,-0.10054 -2.79135,-1.22237 -0.0556,0.37835 A 16.949208,16.949208 0 0 1 147.4344,562.82 v -4.5429 a 0.87841666,0.87841666 0 0 0 -0.89429,-0.79375 h -1.12712 a 2.6458333,2.6458333 0 0 1 1.54252,2.20134 h -1.25942 a 15.875,15.875 0 0 1 -0.762,-2.38125 v 0 a 1.0927292,1.0927292 0 0 1 0.18521,-0.0635 1.2885208,1.2885208 0 0 0 -0.19579,0.0609 15.697729,15.697729 0 0 1 -0.39952,-3.57981 v -1.39965 h 0.87577 l 0.14552,4.87892 h 0.762 l 0.14023,-12.90902 h 1.25148 l -0.10584,13.462 a 0.65087499,0.65087499 0 0 1 0.49477,-0.22754 h 0.38365 v -3.2729 a 1.1721042,1.1721042 0 0 1 1.19592,-1.14035 h 1.05833 a 1.1721042,1.1721042 0 0 1 1.2065,1.14035 v 0.39952 h 0.57944 a 0.87577082,0.87577082 0 0 1 0.89694,0.85461 v 1.03187 h -3.30465 v -0.889 a 0.85989582,0.85989582 0 0 0 -0.54769,0.79375 v 1.21444 a 0.60324999,0.60324999 0 0 1 0.25929,0.48683 v 6.16215 h 0.29898 v -6.64898 h 3.28084 v 6.66221 h 0.70379 v 3.92112 l 1.91823,-12.7291 h -0.508 v -1.05833 h 4.54025 v 1.05833 h -0.51065 l 2.23044,14.77962 z m -7.9375,-13.41702 v 0.52916 h -3.28348 v -0.52916 z m 23.28333,10.49337 h -0.045 v 0.0265 c -0.2196,0.12965 -0.4445,0.26458 -0.6694,0.37306 v -0.39952 h -2.74373 v 0.9869 h 1.55046 q -0.71437,0.32543 -1.45256,0.59796 h -0.0979 v 0.0344 c -0.22225,0.082 -0.4445,0.1614 -0.66939,0.23548 v -0.26458 H 169.797 v 0.98954 h 0.0265 a 26.291646,26.291646 0 0 1 -5.2361,0.52917 q -1.29646,0 -2.50296,-0.0979 v -3.83117 h 15.85119 c -0.40746,0.2884 -0.82815,0.56357 -1.26207,0.82021 z m 3.47927,-2.69081 0.18256,-8.63071 a 2.8019375,2.8019375 0 0 0 -1.61396,2.53471 v 6.80244 h 0.67734 q -0.54504,0.47889 -1.12713,0.91281 h -15.45166 v -0.91281 h 0.6006 l 0.65617,-4.30742 h -0.23548 v -0.52917 h 1.016 l -0.87577,-0.50535 v -0.4789 h 1.93675 v 0.48948 l -0.889,0.51594 h 1.01335 v 0.52917 h -0.24871 l 0.64823,4.25714 0.23548,-17.00741 0.0635,-0.11113 h 0.79375 l 0.23813,17.16881 h 0.28575 l 0.23547,-17.16881 h 0.85461 l 0.24871,17.14765 h 0.94721 l 0.32808,-6.64105 h 1.18533 l 0.32809,6.64105 h 0.38629 l 0.32808,-6.64105 h 0.66675 l 0.18785,-8.8212 h 1.18269 l 0.32544,15.46225 h 3.07446 v -15.25059 a 3.175,3.175 0 0 1 2.1881,-3.02683 l 0.0767,-3.6195 h 1.66952 l 0.37836,17.83292 a 14.816666,14.816666 0 0 1 -2.49502,3.35756 z"
       id="path39307"
       style="stroke-width:0.264583" /></g></svg>
