<svg id="Capa_1" data-name="Capa 1" xmlns="http://www.w3.org/2000/svg" xmlns:xlink="http://www.w3.org/1999/xlink" viewBox="0 0 770.81 221.09"><defs><style>.cls-1{fill:#fff;}.cls-2{fill:url(#GradientFill_1);}.cls-3{fill:url(#GradientFill_1-2);}.cls-4{fill:#0f1010;}.cls-5{fill:#861642;}.cls-6{fill:#bc955b;}</style><linearGradient id="GradientFill_1" x1="-11.03" y1="150.81" x2="210" y2="128.37" gradientUnits="userSpaceOnUse"><stop offset="0" stop-color="#fcde71"/><stop offset="0.13" stop-color="#b57d18"/><stop offset="0.26" stop-color="#fcde71"/><stop offset="0.5" stop-color="#b57d18"/><stop offset="0.67" stop-color="#b57d18"/><stop offset="0.82" stop-color="#fcde71"/><stop offset="1" stop-color="#b57d18"/></linearGradient><linearGradient id="GradientFill_1-2" x1="-12.02" y1="141.05" x2="209.01" y2="118.6" xlink:href="#GradientFill_1"/></defs><path class="cls-1" d="M173,8.49C159,.8,146.63.68,135.32,8.14c-9,5.94-17.4,16.52-27.15,34.28L96.45,63.77,84.73,42.42C75,24.66,66.61,14.08,57.59,8.14,46.27.68,34,.79,19.93,8.49l-.35.2V72.12C19.58,92,28,108.71,43.8,120.46c14,10.41,32.87,16.14,53,16.14s38.72-5.69,52.55-16c15.67-11.71,24-28.46,24-48.45V8.69Z"/><path class="cls-2" d="M189.2,86.76c0-2.11.31-8.17-.76-8.79-2.44-1.41-7.73,1.94-7.55,10,.28,12.86-2.51,19.78-2.51,19.78s4.13.19,3.69,4.23-4.82,8.33-10,16.12c-1.19,1.79-2.16,3.67-3.45,4.81-4.3,3.79-9.16,7-11.1,6.94,1.91-.51,8.29-6,9.72-7.65s11.89-17.69,11.89-17.69,2.87-7.21-5.58-4.66c-5.86,1.77-15.91,14.38-23.39,19.84-4.75,3.47-11.61,3.55-19.34,6.23-25.83,8.89-40.37,26.16-28.13,56.33,17.68-33.49,38.78-17.66,66.75-40.16,10.07-8.1,16.44-27,19.5-34.85C191.4,111.08,189.43,95.91,189.2,86.76Z"/><path class="cls-3" d="M23.32,152.14c28,22.5,49.07,6.67,66.75,40.16,12.26-30.17-2.3-47.44-28.13-56.33-7.71-2.68-14.57-2.76-19.33-6.23-7.48-5.46-17.53-18.07-23.4-19.84-8.44-2.55-5.58,4.66-5.58,4.66s10.46,16.05,11.89,17.69,7.81,7.14,9.72,7.65c-1.94.11-6.8-3.15-11.1-6.94-1.29-1.14-2.26-3-3.45-4.81-5.15-7.79-9.53-12.06-10-16.12s3.69-4.23,3.69-4.23-2.8-6.92-2.51-19.78c.18-8.11-5.11-11.46-7.55-10-1.09.62-.71,6.68-.76,8.79-.24,9.15-2.19,24.32.22,30.53C6.88,125.18,13.25,144,23.32,152.14Z"/><path class="cls-4" d="M18.49,183.76c-2.28,1.34-4.81,2.82-7.1,4.2l4.28-7.06L13,178.2,5,185.53l1.71,1.74L12.43,182l-4,6.83,2,2.05c2.19-1.28,4.6-2.63,6.82-4l-5.34,5.7,1.74,1.76,7.44-8Z"/><path class="cls-4" d="M22.43,198.42a4.9,4.9,0,0,1-.59-.46.69.69,0,0,1-.18-.16l4.25-6.31.87.48.88-1.3L24,188.21l-.88,1.3.62.49a.4.4,0,0,0,.13.14l-4.25,6.29-.86-.46-.85,1.27,3.64,2.46Z"/><polygon class="cls-4" points="30.9 196.26 30.59 204.69 33.38 206.1 38.3 196.38 36.12 195.28 32.93 202.22 33.2 193.81 30.46 192.42 25.55 202.15 27.73 203.25 30.9 196.26"/><path class="cls-4" d="M37.07,207.73l2.39.86c.61-.75,1.38-1.63,2-2.4l3.42,1.23,0,3.14,2.45.89-.16-11.65-2.62-.94ZM45,205.38l-2.2-.8,2.34-3Z"/><polygon class="cls-4" points="59.42 205.43 59.93 203.56 52.14 201.46 51.63 203.33 54.18 204.02 51.85 212.66 54.28 213.32 56.62 204.67 59.42 205.43"/><path class="cls-4" d="M64,213.84l1.51-7.46,1,.12.31-1.54-4.31-.88-.31,1.55.76.21a.38.38,0,0,0,.17.08l-1.51,7.43-1-.09-.31,1.5,4.32.87.3-1.52a5.17,5.17,0,0,1-.72-.19A1,1,0,0,1,64,213.84Z"/><polygon class="cls-4" points="69.13 207.37 71.74 207.74 70.48 216.61 72.98 216.96 74.24 208.1 77.11 208.5 77.38 206.59 69.4 205.45 69.13 207.37"/><path class="cls-4" d="M82.1,216l.72-8.88-2.43-.2-.88,10.85,6,.49.16-2.05-2.09-.11Z"/><path class="cls-4" d="M95.13,207.64l-2.79,0-4.26,10.82,2.54,0c.34-.9.78-2,1.14-2.92l3.63.06,1,3,2.6,0Zm-2.69,6L93.67,210l1.11,3.67Z"/><polygon class="cls-4" points="92.81 206.36 94.59 206.39 96.14 203.72 93.87 203.68 92.81 206.36"/><polygon class="cls-4" points="107.9 218.21 111.02 218.04 110.44 207.15 108 207.28 108.69 214.89 104.74 207.46 101.67 207.62 102.26 218.51 104.69 218.38 103.96 210.73 107.9 218.21"/><polygon class="cls-4" points="128.8 204.61 122.24 205.76 124.13 216.49 130.74 215.32 130.41 213.42 126.18 214.16 125.7 211.44 129.47 210.78 129.14 208.87 125.36 209.53 124.96 207.23 129.13 206.5 128.8 204.61"/><path class="cls-4" d="M140.51,205.15c-.5-2-2.18-2.92-4.57-2.32-1.76.45-3.69,1.06-3.69,1.06l2.67,10.55,2.45-.62-1.05-4.15.47-.12,3.48,3.54,2.88-.73c-1.25-1.12-2.82-2.56-4.07-3.74A3.21,3.21,0,0,0,140.51,205.15Zm-3.71,2.65-1,.25L135,205l1-.25c1.29-.33,1.83.14,2.07,1.1A1.54,1.54,0,0,1,136.8,207.8Z"/><polygon class="cls-4" points="149.36 198.8 143.07 200.96 146.61 211.27 152.96 209.09 152.33 207.25 148.27 208.65 147.37 206.04 151 204.79 150.37 202.96 146.74 204.2 145.98 201.99 149.99 200.61 149.36 198.8"/><path class="cls-4" d="M161.59,201.73c-.83-1.86-2.55-1.8-4.06-1.78-1,0-2,0-2.26-.61s.09-1.13,1.09-1.57a14.43,14.43,0,0,1,2.14-.69c-.12-.37-.43-1.4-.52-1.82l-.33.12a9.1,9.1,0,0,0-2.19.67c-1.86.83-3.25,2.22-2.2,4.58.79,1.77,2.49,1.77,4,1.76,1,0,2,0,2.29.63.4.91-.69,1.57-1.36,1.87a13,13,0,0,1-2.47.59l.85,1.86a7.45,7.45,0,0,0,2.65-.65C161.34,205.73,162.6,204,161.59,201.73Z"/><polygon class="cls-4" points="174.71 186.88 173.56 185.32 167.06 190.1 168.21 191.66 170.34 190.09 175.64 197.3 177.67 195.81 172.37 188.6 174.71 186.88"/><path class="cls-4" d="M181.05,177.41l-1.61,1.79,5.28,4.73a1.93,1.93,0,1,1-2.57,2.87l-5.28-4.73-1.62,1.8,5.28,4.73c2.14,1.92,4.23,1.43,5.94-.48s2-4.07-.14-6Z"/><polygon class="cls-4" points="178.16 179.11 177.16 176.18 175.63 177.88 176.97 180.44 178.16 179.11"/><rect class="cls-5" x="103.61" y="129.49" width="10.38" height="3.74"/><rect class="cls-5" x="90.71" y="129.49" width="10.38" height="3.74"/><polygon class="cls-5" points="82.81 123.36 81.35 113.64 72.7 118.12 82.81 123.36"/><polygon class="cls-5" points="80.85 110.34 79.51 101.43 72.53 105.5 80.85 110.34"/><polygon class="cls-5" points="71.25 130.3 81.46 125.83 61.05 125.83 71.25 130.3"/><polygon class="cls-5" points="79 98.1 77.82 90.23 72.44 93.78 79 98.1"/><polygon class="cls-5" points="60.85 113.62 59.38 123.39 69.54 118.12 60.85 113.62"/><polygon class="cls-5" points="62.69 101.45 61.35 110.32 69.63 105.5 62.69 101.45"/><polygon class="cls-5" points="76.1 78.87 66.09 78.87 64.72 87.97 77.47 87.97 76.1 78.87"/><polygon class="cls-5" points="64.38 90.21 63.19 98.13 69.79 93.78 64.38 90.21"/><polygon class="cls-5" points="65.84 89.42 71.12 92.9 76.39 89.42 65.84 89.42"/><polygon class="cls-5" points="60.64 124.37 81.61 124.37 71.12 118.94 60.64 124.37"/><polygon class="cls-5" points="30.35 85.6 30.35 85.6 30.35 85.6 30.35 85.6"/><path class="cls-5" d="M42.16,78.25a3.34,3.34,0,0,1,3.33-2.61h2.33V74.13a3.32,3.32,0,0,0-3.39-3.23h-4A3.32,3.32,0,0,0,37,74.13V86.5h1.5a2.33,2.33,0,0,1,.38,0V82.39A4.36,4.36,0,0,1,42.16,78.25Z"/><polygon class="cls-5" points="32.51 87.41 32.51 87.41 32.5 87.4 32.51 87.41"/><polygon class="cls-5" points="71.12 94.65 63.95 99.38 78.28 99.38 71.12 94.65"/><polygon class="cls-5" points="79.64 112.9 62.6 112.9 71.12 117.31 79.64 112.9"/><polygon class="cls-5" points="64.52 100.83 71.08 104.65 77.64 100.83 64.52 100.83"/><polygon class="cls-5" points="71.08 106.34 62.32 111.44 79.84 111.44 71.08 106.34"/><polygon class="cls-5" points="95.57 104.85 98.14 106.53 100.72 104.85 95.57 104.85"/><polygon class="cls-5" points="102 109.04 101.42 105.24 98.79 106.95 102 109.04"/><polygon class="cls-5" points="101.33 110.36 94.92 110.36 98.13 112.2 101.33 110.36"/><polygon class="cls-5" points="98.14 107.37 94.64 109.65 101.64 109.65 98.14 107.37"/><polygon class="cls-5" points="100.58 99.75 95.69 99.75 95.02 104.14 101.25 104.14 100.58 99.75"/><polygon class="cls-5" points="98.83 112.61 102.9 114.95 102.24 110.65 98.83 112.61"/><polygon class="cls-5" points="94.86 105.23 94.28 109.05 97.5 106.95 94.86 105.23"/><polygon class="cls-5" points="93.85 115.48 102.4 115.48 98.13 113.02 93.85 115.48"/><rect class="cls-5" x="103.61" y="123.5" width="10.38" height="3.73"/><polygon class="cls-5" points="94.03 110.66 93.38 114.94 97.42 112.61 94.03 110.66"/><path class="cls-5" d="M150.25,77.22v7.31a12.05,12.05,0,0,1,6.13-5.43l.25-11.58A10.6,10.6,0,0,0,150.25,77.22Z"/><path class="cls-5" d="M150.25,58.36V71.47a12.07,12.07,0,0,1,6.41-5.54L157,48.49A10.59,10.59,0,0,0,150.25,58.36Z"/><rect class="cls-5" x="90.71" y="123.5" width="10.38" height="3.73"/><rect class="cls-5" x="116.52" y="123.5" width="10.38" height="3.73"/><path class="cls-5" d="M173,8.49C159,.8,146.63.68,135.32,8.14c-9,5.94-17.4,16.52-27.15,34.28L96.45,63.77,84.73,42.42C75,24.66,66.61,14.08,57.59,8.14,46.27.68,34,.79,19.93,8.49l-.35.2V72.12C19.58,92,28,108.71,43.8,120.46c14,10.41,32.87,16.14,53,16.14s38.72-5.69,52.55-16c15.67-11.71,24-28.46,24-48.45V8.69ZM67.26,62.85c.94-3.45,6.16-7.76,4.36-10.09,2.22,1.11,3.89,3.83,3.5,7.39S72,64.33,72.4,68.23c-2.41-2.87.27-6.56.56-8.3-1.31,1.29-3.67,2.94-3.22,6.11.39,2.71,2.81,4,2,7-.23-.33-.32-.9-.54-1.3C69.75,69.29,66.05,67.32,67.26,62.85Zm-37,41.05c-1-1.59-1.94-3.22-2.78-4.87h2.78Zm0-5.94H26.91c-.37-.75-.71-1.51-1-2.27h4.36ZM84.5,134.55l-1.2-8L73,131.08l6.39,2.8c-2.25-.36-4.42-.8-6.53-1.29l-1.65-.72-.48.21c-.74-.19-1.45-.41-2.17-.62l.86-.38-10.55-4.62-.21,1.43A64.06,64.06,0,0,1,32,106.51V89.34a3.32,3.32,0,0,0-3.38-3H24.36a10,10,0,0,1,5.83,8.32H25.43a60,60,0,0,1-2.88-9h0a4.13,4.13,0,0,1,.7-.24,4.87,4.87,0,0,0-.74.23A59.33,59.33,0,0,1,21,72.12V66.83h3.31l.55,18.44h2.88l.53-48.79H33l-.4,50.88a2.46,2.46,0,0,1,1.87-.86h1.45V74.13a4.43,4.43,0,0,1,4.52-4.31h4A4.43,4.43,0,0,1,49,74.13v1.51h2.19a3.31,3.31,0,0,1,3.39,3.23v3.9H42.09V79.41a3.25,3.25,0,0,0-2.07,3V87A2.28,2.28,0,0,1,41,88.84v23.29h1.13V87H54.53v25.18h2.66V127l7.25-48.11H62.52v-4H79.68v4H77.75l8.43,55.86Zm-30-50.71v2H42.09v-2Zm88,39.66h-.17v.1c-.83.49-1.68,1-2.53,1.41V123.5H129.43v3.73h5.86q-2.7,1.23-5.49,2.26h-.37v.13c-.84.31-1.68.61-2.53.89v-1H116.52v3.74h.1a99.37,99.37,0,0,1-19.79,2q-4.9,0-9.46-.37V120.4h59.91C145.74,121.49,144.15,122.53,142.51,123.5Zm13.15-10.17.69-32.62a10.59,10.59,0,0,0-6.1,9.58V116h2.56q-2.06,1.81-4.26,3.45H90.14V116h2.27l2.48-16.28H94v-2h3.84l-3.31-1.91V94h7.32v1.85L98.49,97.8h3.83v2h-.94l2.45,16.09.89-64.28.24-.42h3l.9,64.89h1.08l.89-64.89h3.23L115,116h3.58l1.24-25.1h4.48l1.24,25.1H127l1.24-25.1h2.52l.71-33.34h4.47L137.17,116h11.62V58.36a12,12,0,0,1,8.27-11.44l.29-13.68h6.31l1.43,67.4A56,56,0,0,1,155.66,113.33Z"/><path class="cls-6" d="M337,54V49.23h-5.51V54h-2.15V42.66h2.15v4.58H337V42.66h2.16V54Z"/><path class="cls-6" d="M353.92,48.34c0,3.71-1.67,5.8-4.95,5.8S344,52.05,344,48.34s1.65-5.87,4.94-5.87S353.92,44.57,353.92,48.34Zm-2.17,0c0-2.58-.85-3.94-2.78-3.94s-2.77,1.36-2.77,3.94.84,3.87,2.77,3.87S351.75,50.86,351.75,48.34Z"/><path class="cls-6" d="M366.7,54l-5.9-7.74V54h-2.15V42.66h2l5.88,7.77V42.66h2.15V54Z"/><path class="cls-6" d="M384.47,48.34c0,3.71-2,5.8-5.52,5.8s-5.49-2.09-5.49-5.8,2-5.87,5.49-5.87S384.47,44.57,384.47,48.34Zm-2.19,0c0-2.56-1.21-3.9-3.33-3.9s-3.32,1.34-3.32,3.9,1.21,3.84,3.32,3.84S382.28,50.86,382.28,48.34Z"/><path class="cls-6" d="M398.64,54H396.3l-2.67-3.44h-2.27V54h-2.15V42.66h4.36c3,0,4.77,1.44,4.77,4a3.57,3.57,0,0,1-2.58,3.55l2.88,3.58Zm-5-5.27c1.63,0,2.56-.75,2.56-2s-.93-2.07-2.56-2.09h-2.25v4.12Z"/><path class="cls-6" d="M404.42,54h-2.3l4.54-11.32h2.9L414.1,54h-2.3l-.92-2.38h-5.52Zm4.08-8.45a8.77,8.77,0,0,1-.39-1.24,12.54,12.54,0,0,1-.39,1.24l-1.61,4.11h4Z"/><path class="cls-6" d="M422.48,42.66c2.86,0,4.29,1.06,4.29,3.13A2.25,2.25,0,0,1,425,48c1.69.39,2.52,1.39,2.52,2.76,0,2.12-1.61,3.18-4.86,3.18h-4.21V42.66Zm-1.89,4.58H423c1.1,0,1.73-.46,1.73-1.26,0-1-.74-1.43-2.27-1.43h-1.89Zm0,4.83h2.12q2.58,0,2.58-1.47c0-1-.82-1.54-2.27-1.54h-2.43Z"/><path class="cls-6" d="M432.24,54V42.66h2.15V52h5.38v2Z"/><path class="cls-6" d="M444.31,54V42.66h7.89v2h-5.74v2.73h5V49.3h-5V52h5.89v2Z"/><path class="cls-6" d="M465.64,54h-2.3l4.54-11.32h2.9L475.33,54H473l-.93-2.38h-5.51Zm4.08-8.45a12.54,12.54,0,0,1-.39-1.24,12.54,12.54,0,0,1-.39,1.24l-1.61,4.11h4Z"/><path class="cls-6" d="M483.35,54h-2.13V50.32L477,42.66h2.22l2.55,4.54a7.54,7.54,0,0,1,.51,1.12,8.6,8.6,0,0,1,.51-1.12l2.54-4.54h2.23l-4.22,7.66Z"/><path class="cls-6" d="M501.64,48.75c0,3.52-1.72,5.39-4.93,5.39s-4.94-1.87-5-5.39V42.66h2.15v6.09c0,2.22,1,3.41,2.81,3.41s2.78-1.19,2.78-3.41V42.66h2.15Z"/><path class="cls-6" d="M514.88,54,509,46.24l0,.76v7h-2.15V42.66h2l5.88,7.77,0-.52V42.66h2.15V54Z"/><path class="cls-6" d="M527,44.64V54H524.9V44.64h-3.81v-2h9.76v2Z"/><path class="cls-6" d="M534.89,54h-2.3l4.55-11.32H540L544.58,54h-2.3l-.93-2.38h-5.51ZM539,45.53a12.54,12.54,0,0,1-.39-1.24,12.54,12.54,0,0,1-.39,1.24l-1.61,4.11h4Z"/><path class="cls-6" d="M559.28,46.93v-.58L556,54h-1.5l-3.25-7.63v.52L551.05,54h-2.17l.42-11.32h2.51L555,50.14c.11.27.18.55.24.74a4.45,4.45,0,0,1,.28-.74l3.19-7.48h2.5L561.66,54h-2.17Z"/><path class="cls-6" d="M567.29,54V42.66h2.15V54Z"/><path class="cls-6" d="M575.12,54V42.66H583v2h-5.73v2.73h5V49.3h-5V52h5.88v2Z"/><path class="cls-6" d="M596.12,54l-5.9-7.74V54h-2.15V42.66h2l5.88,7.77,0-.52V42.66h2.16V54Z"/><path class="cls-6" d="M608.26,44.64V54h-2.13V44.64h-3.8v-2h9.75v2Z"/><path class="cls-6" d="M626.33,48.34c0,3.71-2,5.8-5.51,5.8s-5.49-2.09-5.49-5.8,2-5.87,5.49-5.87S626.33,44.57,626.33,48.34Zm-2.19,0c0-2.56-1.2-3.9-3.32-3.9s-3.32,1.34-3.32,3.9,1.21,3.84,3.32,3.84S624.14,50.86,624.14,48.34Z"/><path class="cls-6" d="M641.94,42.66c4,0,6.26,2.09,6.26,5.6S645.91,54,641.94,54h-3.71V42.66Zm0,9.37c2.64,0,4.08-1.32,4.08-3.77s-1.41-3.65-4.08-3.65h-1.56V52Z"/><path class="cls-6" d="M653,54V42.66h7.88v2h-5.73v2.73h5V49.3h-5V52H661v2Z"/><path class="cls-5" d="M551.48,67.53c5.87,0,11.34,3.38,11.34,10.25S557.35,88,551.48,88s-11.34-3.38-11.34-10.24S545.61,67.53,551.48,67.53Zm-11.35,66.94V92.16a1.4,1.4,0,0,1,1.4-1.4h19.89a1.41,1.41,0,0,1,1.41,1.4v52.25a1.41,1.41,0,0,1-1.41,1.41h-9.94A11.35,11.35,0,0,1,540.13,134.47Z"/><path class="cls-5" d="M616.63,134.47V68.91A1.41,1.41,0,0,1,618,67.5H628a11.35,11.35,0,0,1,11.35,11.35v65.56a1.41,1.41,0,0,1-1.4,1.41H628A11.35,11.35,0,0,1,616.63,134.47Z"/><path class="cls-5" d="M437.51,95.45a1.4,1.4,0,0,1,1-1.67c13.07-3.41,18.4-4.15,23.73-4.15,16.63,0,24.05,6.63,24.05,22.59v32.19a1.41,1.41,0,0,1-1.4,1.41h-15a6.3,6.3,0,0,1-6.3-6.3h0c-4,4.95-8.54,7.31-13.93,7.31-11.24,0-17.87-3.6-17.87-17.42,0-11.69,8-17.19,23.49-17.19h8.31c0-3.26-1.12-5.51-5.84-5.51a63.38,63.38,0,0,0-8.3.69,9.82,9.82,0,0,1-11-7.53Zm20.93,26.32c-3.21,0-5.33,1.86-5.39,4.61a4,4,0,0,0,3.66,4,12.07,12.07,0,0,0,6.9-1.76v-6.85Z"/><path class="cls-5" d="M652.3,95.45a1.41,1.41,0,0,1,1-1.67c13.08-3.41,18.41-4.15,23.74-4.15,16.63,0,24,6.63,24,22.59v32.19a1.4,1.4,0,0,1-1.4,1.41h-15a6.29,6.29,0,0,1-6.29-6.3h0c-4,4.95-8.54,7.31-13.94,7.31-11.23,0-17.86-3.6-17.86-17.42,0-11.69,8-17.19,23.48-17.19h8.32c0-3.26-1.13-5.51-5.85-5.51a63.25,63.25,0,0,0-8.29.69,9.83,9.83,0,0,1-11-7.53Zm20.94,26.32c-3.22,0-5.34,1.86-5.4,4.61a4,4,0,0,0,3.67,4,12.07,12.07,0,0,0,6.9-1.76v-6.85Z"/><path class="cls-5" d="M390.23,98.17c7.41-6.06,12.58-8.42,18.43-8.42,11.23,0,15.61,5.84,15.61,20.78v33.88a1.41,1.41,0,0,1-1.4,1.41h-9.94a11.36,11.36,0,0,1-11.35-11.36V117.27c0-4.72-.79-6-3.94-6-2.69,0-5.16,1.68-7.41,3.93v29.16a1.41,1.41,0,0,1-1.41,1.41H368.93a1.41,1.41,0,0,1-1.4-1.41V92.16a1.4,1.4,0,0,1,1.4-1.4h13.88a7.42,7.42,0,0,1,7.42,7.41Z"/><path class="cls-5" d="M732.77,98.17c7.41-6.06,12.58-8.42,18.42-8.42,11.24,0,15.62,5.84,15.62,20.78v33.88a1.41,1.41,0,0,1-1.4,1.41h-9.94a11.37,11.37,0,0,1-11.36-11.36V117.27c0-4.72-.78-6-3.93-6-2.69,0-5.17,1.68-7.41,3.93v29.16a1.41,1.41,0,0,1-1.41,1.41H711.47a1.41,1.41,0,0,1-1.4-1.41V92.16a1.4,1.4,0,0,1,1.4-1.4h13.88a7.42,7.42,0,0,1,7.42,7.41Z"/><path class="cls-5" d="M532.68,141.06l-1.9-11.62a1.41,1.41,0,0,0-1.39-1.18h-5.55c-4.72,0-5.84-2.25-5.84-5.51V105h11.75a1.4,1.4,0,0,0,1.41-1.4V89.37A1.34,1.34,0,0,0,529.82,88H518V75.55a8,8,0,0,0-8-8H496.71a1.41,1.41,0,0,0-1.41,1.4V88h-3.72a1.4,1.4,0,0,0-1.41,1.4v14.12a1.4,1.4,0,0,0,1.41,1.4h3.72v18.93c0,16.29,5.84,22.58,19.55,22.58,6.18,0,13.32-1.65,17.18-4A1.4,1.4,0,0,0,532.68,141.06Z"/><path class="cls-5" d="M609.17,141.06l-1.91-11.62a1.4,1.4,0,0,0-1.38-1.18h-5.55c-4.72,0-5.85-2.25-5.85-5.51V105h11.76a1.39,1.39,0,0,0,1.4-1.4V89.37A1.34,1.34,0,0,0,606.3,88H594.48V75.55a8,8,0,0,0-8-8H573.19a1.4,1.4,0,0,0-1.4,1.4V88h-3.73a1.39,1.39,0,0,0-1.4,1.4v14.12a1.39,1.39,0,0,0,1.4,1.4h3.73v18.93c0,16.29,5.84,22.58,19.55,22.58,6.17,0,13.32-1.65,17.18-4A1.4,1.4,0,0,0,609.17,141.06Z"/><path class="cls-5" d="M300.91,106.88v-4.09L286.1,139.92a9.37,9.37,0,0,1-8.7,5.9H275a8.76,8.76,0,0,1-8.15-5.56l-14.71-37.47v3.41l-.6,25.24a14.73,14.73,0,0,1-14.73,14.38h-9.55a1.21,1.21,0,0,1-1.2-1.26l3.3-80.63a1.21,1.21,0,0,1,1.21-1.16h17.19a14.72,14.72,0,0,1,13.6,9.08l12.84,30.94.07.16a2.23,2.23,0,0,0,4.13-.09l0-.07,13-31a14.73,14.73,0,0,1,13.59-9h17.36a1.2,1.2,0,0,1,1.2,1.16l3.3,80.42a1.42,1.42,0,0,1-1.41,1.47H316a14.73,14.73,0,0,1-14.72-14.53Z"/><path class="cls-5" d="M347.17,67.5c5.87,0,11.35,3.38,11.35,10.25S353,88,347.17,88s-11.34-3.39-11.34-10.25S341.3,67.5,347.17,67.5Zm-11.35,66.94V92.13a1.41,1.41,0,0,1,1.41-1.4h19.89a1.4,1.4,0,0,1,1.4,1.4v52.25a1.41,1.41,0,0,1-1.4,1.41h-9.95A11.35,11.35,0,0,1,335.82,134.44Z"/><path class="cls-5" d="M690.45,73.22l-1.58,4.87a8.78,8.78,0,0,1-7.38,6L661.8,86.28a.88.88,0,0,1-.88-.46l-1.4-2.58A.89.89,0,0,1,660,82l29.31-9.87A.89.89,0,0,1,690.45,73.22Z"/><path class="cls-6" d="M333.48,179.7h-4.1l4.54-12.64h5.28l4.54,12.64h-4.09l-.62-1.89h-4.95Zm3.46-8.2c-.19-.52-.29-1-.39-1.33-.09.37-.21.81-.38,1.33l-1,3h2.77Z"/><path class="cls-6" d="M351.71,167.06c4.52,0,7.06,2.28,7.06,6.32s-2.54,6.32-7.06,6.32h-4.93V167.06Zm0,9.35c2,0,3.15-1.08,3.15-3a2.81,2.81,0,0,0-3.15-3h-1.06v6.07Z"/><path class="cls-6" d="M373.65,173.78v-.62L371,179.7H368.8l-2.57-6.54v.51l-.14,6h-3.84l.52-12.64h4.29l2.53,6.1a7.08,7.08,0,0,1,.33,1,10.27,10.27,0,0,1,.31-1l2.55-6.1h4.31l.51,12.64h-3.87Z"/><path class="cls-6" d="M381.48,179.7V167.06h3.87V179.7Z"/><path class="cls-6" d="M397.9,179.7l-4.77-6.4,0,1.1v5.3h-3.87V167.06h3.5l4.76,6.41,0-1v-5.37h3.88V179.7Z"/><path class="cls-6" d="M405.31,179.7V167.06h3.87V179.7Z"/><path class="cls-6" d="M422.58,170.81a16.46,16.46,0,0,0-4.56-.89c-.6,0-.81.23-.81.58,0,.6.77.62,2.86,1.35,1.89.66,3.46,1.37,3.46,3.81,0,2.74-1.95,4.23-4.95,4.23a12.9,12.9,0,0,1-6-1.68l1.28-2.94a11.5,11.5,0,0,0,4.56,1.43c.71,0,.95-.25.95-.65s-.64-.64-2.77-1.32c-2.4-.79-3.52-1.7-3.52-3.88,0-2.61,1.84-4,4.8-4a15.12,15.12,0,0,1,5.58,1Z"/><path class="cls-6" d="M434,170.56v9.14h-3.85v-9.14h-3.75v-3.5h11.35v3.5Z"/><path class="cls-6" d="M446.51,167.06c3.65,0,5.7,1.72,5.7,4.79a4.29,4.29,0,0,1-2.07,4l2.5,3.58v.29h-4.12l-2-3.17H445v3.17h-3.88V167.06Zm.25,6.38a1.46,1.46,0,0,0,1.64-1.59c0-1-.67-1.55-1.85-1.55H445v3.14Z"/><path class="cls-6" d="M458.94,179.7h-4.1l4.54-12.64h5.28l4.54,12.64h-4.08l-.62-1.89h-5Zm3.46-8.2c-.18-.52-.29-1-.39-1.33-.08.37-.21.81-.37,1.33l-1,3h2.78Z"/><path class="cls-6" d="M483.61,178.46a11.06,11.06,0,0,1-5.42,1.43c-3.9,0-6.36-2.32-6.36-6.47s2.46-6.56,6.57-6.56a10.75,10.75,0,0,1,4.78,1.14L482,170.92a13.58,13.58,0,0,0-3.48-.6c-1.82,0-2.82,1-2.82,3.1,0,1.89,1,3,2.63,3a10.23,10.23,0,0,0,4-.85Z"/><path class="cls-6" d="M486.75,179.7V167.06h3.87V179.7Z"/><path class="cls-6" d="M507.18,173.42c0,4.15-2.46,6.47-6.52,6.47s-6.53-2.32-6.53-6.47,2.47-6.56,6.53-6.56S507.18,169.22,507.18,173.42Zm-3.91,0c0-2.09-1-3.1-2.61-3.1s-2.61,1-2.61,3.1,1,3,2.61,3S503.27,175.43,503.27,173.42Zm.25-8.86a16.29,16.29,0,0,1-4.19,1.95l-.91-1,2.38-3.17,2.72,1.47Z"/><path class="cls-6" d="M519.32,179.7l-4.76-6.4,0,1.1v5.3h-3.87V167.06h3.5l4.76,6.41,0-1v-5.37h3.87V179.7Z"/><path class="cls-6" d="M532.14,179.7V177c3.44-2.74,6-4.52,6-5.7,0-.83-.58-1.22-1.37-1.22a11.32,11.32,0,0,0-4,1.05l-1-2.69a13.93,13.93,0,0,1,5.69-1.57c2.82,0,4.65,1.74,4.65,4.35,0,2.19-2,3.68-4.83,5.38.83-.06,1.66-.12,2.4-.12h2.51v3.23Z"/><path class="cls-6" d="M557.11,173.42c0,4.15-1.89,6.47-5.91,6.47s-5.9-2.32-5.9-6.47,1.9-6.56,5.9-6.56S557.11,169.22,557.11,173.42Zm-3.92,0c0-2.09-.39-3.1-2-3.1s-2,1-2,3.1.42,3,2,3S553.19,175.43,553.19,173.42Z"/><path class="cls-6" d="M560.2,179.7V177c3.43-2.74,6-4.52,6-5.7,0-.83-.58-1.22-1.36-1.22a11.27,11.27,0,0,0-4,1.05l-1-2.69a14,14,0,0,1,5.7-1.57c2.82,0,4.64,1.74,4.64,4.35,0,2.19-2,3.68-4.83,5.38.83-.06,1.66-.12,2.41-.12h2.5v3.23Z"/><path class="cls-6" d="M573.33,179.7V177c3.44-2.74,6-4.52,6-5.7,0-.83-.58-1.22-1.37-1.22a11.28,11.28,0,0,0-4,1.05l-1-2.69a14,14,0,0,1,5.7-1.57c2.82,0,4.64,1.74,4.64,4.35,0,2.19-2.05,3.68-4.83,5.38.83-.06,1.66-.12,2.41-.12h2.5v3.23Z"/><path class="cls-6" d="M599.16,175.66h-6.32v-3.32h6.32Z"/><path class="cls-6" d="M608.59,179.7V177c3.44-2.74,6-4.52,6-5.7,0-.83-.58-1.22-1.37-1.22a11.32,11.32,0,0,0-4,1.05l-1-2.69a13.93,13.93,0,0,1,5.69-1.57c2.82,0,4.64,1.74,4.64,4.35,0,2.19-2.05,3.68-4.82,5.38.83-.06,1.65-.12,2.4-.12h2.51v3.23Z"/><path class="cls-6" d="M633.55,173.42c0,4.15-1.88,6.47-5.9,6.47s-5.9-2.32-5.9-6.47,1.9-6.56,5.9-6.56S633.55,169.22,633.55,173.42Zm-3.91,0c0-2.09-.39-3.1-2-3.1s-2,1-2,3.1.42,3,2,3S629.64,175.43,629.64,173.42Z"/><path class="cls-6" d="M636.65,179.7V177c3.43-2.74,6-4.52,6-5.7,0-.83-.58-1.22-1.36-1.22a11.27,11.27,0,0,0-4,1.05l-1-2.69a14,14,0,0,1,5.7-1.57c2.82,0,4.64,1.74,4.64,4.35,0,2.19-2,3.68-4.83,5.38.83-.06,1.66-.12,2.41-.12h2.5v3.23Z"/><path class="cls-6" d="M653.76,172.28a5.28,5.28,0,0,1,2.74-.76,3.59,3.59,0,0,1,4,3.91c0,2.92-2.34,4.46-5.14,4.46a12.64,12.64,0,0,1-5.84-1.39l1-2.78a10.47,10.47,0,0,0,4.27,1c1.07,0,2-.56,2-1.47,0-.75-.57-1.29-1.55-1.29a2.55,2.55,0,0,0-1.78.83l-3.11-.46.44-7.27h9.13v3.19h-6Z"/></svg>